<svg width="24" height="24" viewBox="0 0 24 24" fill="none" xmlns="http://www.w3.org/2000/svg">
<rect x="1.75" y="1.75" width="20.5" height="20.5" rx="1.25" fill="#D8D8D8" fill-opacity="0.01" stroke="#F9F9F9" stroke-width="1.5" stroke-linejoin="round"/>
<path fill-rule="evenodd" clip-rule="evenodd" d="M17.3374 13.6501V15.0071H18.5C18.7761 15.0071 19 15.231 19 15.5071V18.5C19 18.7761 18.7761 19 18.5 19H5.5C5.22386 19 5 18.7761 5 18.5V15.5071C5 15.231 5.22386 15.0071 5.5 15.0071H6.66256V13.6501C6.66256 13.374 6.88642 13.1501 7.16256 13.1501H9.7463V11.2334C8.93144 10.5671 8.45319 9.57172 8.45319 8.51875C8.45319 6.57841 10.0439 5 12 5C13.9561 5 15.5468 6.57841 15.5468 8.51877C15.5445 9.57208 15.0702 10.5687 14.2547 11.2334V13.1501H16.8374C17.1136 13.1501 17.3374 13.374 17.3374 13.6501ZM9.46875 8.5207C9.47145 9.33853 9.87336 10.1034 10.545 10.5688L10.7608 10.7201V13.0312C10.7608 13.1003 10.8168 13.1562 10.8858 13.1562H13.1131C13.1822 13.1562 13.2381 13.1003 13.2381 13.0312V10.7201L13.454 10.5688C14.126 10.1036 14.5283 9.33873 14.5312 8.5207C14.5312 7.13953 13.3964 6.01562 12.0005 6.01562C10.6046 6.01562 9.46875 7.13953 9.46875 8.5207ZM7.78125 14.125H16.2031C16.2722 14.125 16.3281 14.181 16.3281 14.25V14.8438C16.3281 14.9128 16.2722 14.9688 16.2031 14.9688H7.78125C7.71221 14.9688 7.65625 14.9128 7.65625 14.8438V14.25C7.65625 14.181 7.71221 14.125 7.78125 14.125ZM6.125 18H17.9993C17.9997 18 18 17.9997 18 17.9993V16.1562C18 16.0872 17.944 16.0312 17.875 16.0312H6.125C6.05596 16.0312 6 16.0872 6 16.1562V17.875C6 17.944 6.05596 18 6.125 18Z" fill="#F9F9F9"/>
<path d="M17.3374 15.0071H17.1374V15.2071H17.3374V15.0071ZM6.66256 15.0071V15.2071H6.86256V15.0071H6.66256ZM9.7463 13.1501V13.3501H9.9463V13.1501H9.7463ZM9.7463 11.2334H9.9463V11.1386L9.8729 11.0786L9.7463 11.2334ZM15.5468 8.51877L15.7468 8.5192V8.51877H15.5468ZM14.2547 11.2334L14.1284 11.0784L14.0547 11.1384V11.2334H14.2547ZM14.2547 13.1501H14.0547V13.3501H14.2547V13.1501ZM10.545 10.5688L10.6598 10.405L10.6589 10.4044L10.545 10.5688ZM9.46875 8.5207H9.26875L9.26875 8.52136L9.46875 8.5207ZM10.7608 10.7201H10.9608V10.6161L10.8756 10.5563L10.7608 10.7201ZM13.2381 10.7201L13.1233 10.5563L13.0381 10.6161V10.7201H13.2381ZM13.454 10.5688L13.3401 10.4044L13.3392 10.4051L13.454 10.5688ZM14.5312 8.5207L14.7312 8.52142V8.5207H14.5312ZM17.5374 15.0071V13.6501H17.1374V15.0071H17.5374ZM18.5 14.8071H17.3374V15.2071H18.5V14.8071ZM19.2 15.5071C19.2 15.1205 18.8866 14.8071 18.5 14.8071V15.2071C18.6657 15.2071 18.8 15.3414 18.8 15.5071H19.2ZM19.2 18.5V15.5071H18.8V18.5H19.2ZM18.5 19.2C18.8866 19.2 19.2 18.8866 19.2 18.5H18.8C18.8 18.6657 18.6657 18.8 18.5 18.8V19.2ZM5.5 19.2H18.5V18.8H5.5V19.2ZM4.8 18.5C4.8 18.8866 5.1134 19.2 5.5 19.2V18.8C5.33432 18.8 5.2 18.6657 5.2 18.5H4.8ZM4.8 15.5071V18.5H5.2V15.5071H4.8ZM5.5 14.8071C5.1134 14.8071 4.8 15.1205 4.8 15.5071H5.2C5.2 15.3414 5.33432 15.2071 5.5 15.2071V14.8071ZM6.66256 14.8071H5.5V15.2071H6.66256V14.8071ZM6.46256 13.6501V15.0071H6.86256V13.6501H6.46256ZM7.16256 12.9501C6.77596 12.9501 6.46256 13.2635 6.46256 13.6501H6.86256C6.86256 13.4844 6.99688 13.3501 7.16256 13.3501V12.9501ZM9.7463 12.9501H7.16256V13.3501H9.7463V12.9501ZM9.5463 11.2334V13.1501H9.9463V11.2334H9.5463ZM8.25319 8.51875C8.25319 9.63254 8.75902 10.6845 9.61969 11.3882L9.8729 11.0786C9.10386 10.4497 8.65319 9.5109 8.65319 8.51875H8.25319ZM12 4.8C9.93494 4.8 8.25319 6.46646 8.25319 8.51875H8.65319C8.65319 6.69035 10.1529 5.2 12 5.2V4.8ZM15.7468 8.51877C15.7468 6.46647 14.0651 4.8 12 4.8V5.2C13.8471 5.2 15.3468 6.69035 15.3468 8.51877H15.7468ZM14.3811 11.3884C15.2431 10.6857 15.7444 9.63239 15.7468 8.5192L15.3468 8.51833C15.3447 9.51177 14.8973 10.4516 14.1284 11.0784L14.3811 11.3884ZM14.4547 13.1501V11.2334H14.0547V13.1501H14.4547ZM16.8374 12.9501H14.2547V13.3501H16.8374V12.9501ZM17.5374 13.6501C17.5374 13.2635 17.224 12.9501 16.8374 12.9501V13.3501C17.0031 13.3501 17.1374 13.4844 17.1374 13.6501H17.5374ZM10.6589 10.4044C10.0411 9.97626 9.67124 9.27257 9.66875 8.52004L9.26875 8.52136C9.27167 9.40449 9.70566 10.2305 10.4311 10.7332L10.6589 10.4044ZM10.8756 10.5563L10.6598 10.4051L10.4302 10.7326L10.6461 10.8839L10.8756 10.5563ZM10.9608 13.0312V10.7201H10.5608V13.0312H10.9608ZM10.8858 12.9563C10.9273 12.9563 10.9608 12.9898 10.9608 13.0312H10.5608C10.5608 13.2107 10.7064 13.3562 10.8858 13.3562V12.9563ZM13.1131 12.9563H10.8858V13.3562H13.1131V12.9563ZM13.0381 13.0312C13.0381 12.9898 13.0717 12.9563 13.1131 12.9563V13.3562C13.2926 13.3562 13.4381 13.2107 13.4381 13.0312H13.0381ZM13.0381 10.7201V13.0312H13.4381V10.7201H13.0381ZM13.3392 10.4051L13.1233 10.5563L13.3529 10.8839L13.5688 10.7326L13.3392 10.4051ZM14.3313 8.51998C14.3285 9.27271 13.9584 9.97642 13.3401 10.4044L13.5678 10.7333C14.2936 10.2308 14.7281 9.40476 14.7312 8.52142L14.3313 8.51998ZM12.0005 6.21563C13.2878 6.21563 14.3313 7.25188 14.3313 8.5207H14.7312C14.7312 7.02719 13.505 5.81563 12.0005 5.81563V6.21563ZM9.66875 8.5207C9.66875 7.25198 10.713 6.21563 12.0005 6.21563V5.81563C10.4961 5.81563 9.26875 7.02708 9.26875 8.5207H9.66875ZM16.2031 13.925H7.78125V14.325H16.2031V13.925ZM16.5281 14.25C16.5281 14.0705 16.3826 13.925 16.2031 13.925V14.325C16.1617 14.325 16.1281 14.2914 16.1281 14.25H16.5281ZM16.5281 14.8438V14.25H16.1281V14.8438H16.5281ZM16.2031 15.1687C16.3826 15.1687 16.5281 15.0232 16.5281 14.8438H16.1281C16.1281 14.8023 16.1617 14.7688 16.2031 14.7688V15.1687ZM7.78125 15.1687H16.2031V14.7688H7.78125V15.1687ZM7.45625 14.8438C7.45625 15.0232 7.60176 15.1687 7.78125 15.1687V14.7688C7.82267 14.7688 7.85625 14.8023 7.85625 14.8438H7.45625ZM7.45625 14.25V14.8438H7.85625V14.25H7.45625ZM7.78125 13.925C7.60176 13.925 7.45625 14.0705 7.45625 14.25H7.85625C7.85625 14.2914 7.82267 14.325 7.78125 14.325V13.925ZM17.9993 17.8H6.125V18.2H17.9993V17.8ZM17.8 17.9993C17.8 17.892 17.8865 17.8 17.9993 17.8V18.2C18.1129 18.2 18.2 18.1074 18.2 17.9993H17.8ZM17.8 16.1562V17.9993H18.2V16.1562H17.8ZM17.875 16.2312C17.8336 16.2312 17.8 16.1977 17.8 16.1562H18.2C18.2 15.9768 18.0545 15.8313 17.875 15.8313V16.2312ZM6.125 16.2312H17.875V15.8313H6.125V16.2312ZM6.2 16.1562C6.2 16.1977 6.16642 16.2312 6.125 16.2312V15.8313C5.94551 15.8313 5.8 15.9768 5.8 16.1562H6.2ZM6.2 17.875V16.1562H5.8V17.875H6.2ZM6.125 17.8C6.16642 17.8 6.2 17.8336 6.2 17.875H5.8C5.8 18.0545 5.94551 18.2 6.125 18.2V17.8Z" fill="#F9F9F9"/>
</svg>
