<svg width="24" height="24" viewBox="0 0 24 24" fill="none" xmlns="http://www.w3.org/2000/svg">
<rect x="1" y="11" width="12" height="12" rx="2" fill="#D8D8D8" fill-opacity="0.01" stroke="white" stroke-width="1.5"/>
<path d="M10.7163 18.7302L9.7395 17.0385C9.51685 16.6528 8.96008 16.6528 8.73743 17.0385L7.81198 18.6416L6.09136 15.6613C5.8687 15.2757 5.31222 15.2757 5.08957 15.6613L3.31762 18.7305C3.09497 19.1161 3.37328 19.5981 3.81858 19.5981H10.2153C10.6606 19.598 10.9389 19.116 10.7163 18.7302Z" fill="white"/>
<path d="M8.1852 15.019C8.30316 15.279 8.55086 15.4563 8.835 15.4841C9.11914 15.5119 9.39654 15.3861 9.5627 15.1539C9.72886 14.9217 9.75854 14.6186 9.64055 14.3586C9.52259 14.0986 9.27489 13.9213 8.99075 13.8935C8.70662 13.8656 8.42922 13.9915 8.26306 14.2237C8.0969 14.4558 8.06722 14.759 8.1852 15.019Z" fill="white"/>
<path fill-rule="evenodd" clip-rule="evenodd" d="M6 9.5V3C6 1.89543 6.89543 1 8 1H21C22.1046 1 23 1.89543 23 3V17C23 18.1046 22.1046 19 21 19H14.5" fill="#D8D8D8" fill-opacity="0.01"/>
<path d="M6 9.5V3C6 1.89543 6.89543 1 8 1H21C22.1046 1 23 1.89543 23 3V17C23 18.1046 22.1046 19 21 19H14.5" stroke="white" stroke-width="1.5"/>
<path d="M16.5 8.49976L19.8792 5.22656" stroke="white" stroke-linecap="round"/>
<path d="M16 5H20V9" stroke="white" stroke-linecap="round" stroke-linejoin="round"/>
</svg>
