<svg width="24" height="24" viewBox="0 0 24 24" fill="none" xmlns="http://www.w3.org/2000/svg">
<circle cx="12" cy="12" r="10.25" fill="#D8D8D8" fill-opacity="0.01" stroke="#F9F9F9" stroke-width="1.5"/>
<path fill-rule="evenodd" clip-rule="evenodd" d="M8.92667 11.6876C8.88417 11.3475 8.82465 11.0372 8.74814 10.7566C8.68013 10.5101 8.59511 10.2699 8.49309 10.0361C8.39107 9.80234 8.26355 9.63018 8.11052 9.51966C7.94899 9.42614 7.7492 9.33688 7.51116 9.25186C7.27311 9.16684 7.04357 9.09033 6.82253 9.02232C6.55898 8.9458 6.28693 8.88204 6.00638 8.83103C6.28693 8.78002 6.55898 8.72051 6.82253 8.6525C7.04357 8.59299 7.27311 8.52072 7.51116 8.43571C7.7492 8.35069 7.94899 8.25717 8.11052 8.15515C8.26355 8.06164 8.39107 7.89586 8.49309 7.65781C8.59511 7.41977 8.68013 7.17747 8.74814 6.93092C8.82465 6.65037 8.88417 6.34006 8.92667 6C8.96068 6.34006 9.01594 6.65037 9.09245 6.93092C9.16047 7.17747 9.24548 7.41977 9.3475 7.65781C9.44952 7.89586 9.57705 8.06164 9.73007 8.15515C9.8916 8.25717 10.0914 8.35069 10.3294 8.43571C10.5675 8.52072 10.797 8.59299 11.0181 8.6525C11.2816 8.72051 11.5537 8.78002 11.8342 8.83103C11.5537 8.88204 11.2816 8.9458 11.0181 9.02232C10.797 9.09033 10.5675 9.16684 10.3294 9.25186C10.0914 9.33688 9.8916 9.42614 9.73007 9.51966C9.57705 9.63018 9.44952 9.80234 9.3475 10.0361C9.24548 10.2699 9.16047 10.5101 9.09245 10.7566C9.01594 11.0372 8.96068 11.3475 8.92667 11.6876ZM17.9426 14.4676C17.9936 14.1615 18.0106 13.932 17.9936 13.779C17.9766 13.5919 17.9235 13.3964 17.8342 13.1923C17.745 12.9883 17.6089 12.8119 17.4261 12.6631C17.2434 12.5143 17.0096 12.4208 16.7248 12.3826C16.44 12.3443 16.0893 12.3974 15.6727 12.542C15.3241 12.6695 15.0351 12.797 14.8055 12.9245C14.576 13.0521 14.3401 13.169 14.0978 13.2752C13.8555 13.3815 13.5749 13.4687 13.2561 13.5367C12.9373 13.6047 12.5186 13.6387 12 13.6387C11.4729 13.6387 11.0521 13.6047 10.7375 13.5367C10.423 13.4687 10.1445 13.3815 9.90223 13.2752C9.65994 13.169 9.42402 13.0521 9.19447 12.9245C8.96493 12.797 8.67588 12.6695 8.32731 12.542C7.91923 12.3974 7.57067 12.3443 7.28162 12.3826C6.99256 12.4208 6.75664 12.5143 6.57386 12.6631C6.39107 12.8119 6.25505 12.9883 6.16578 13.1923C6.07651 13.3964 6.02338 13.5919 6.00638 13.779C5.98937 13.932 6.00638 14.1615 6.05739 14.4676C6.1084 14.7736 6.21254 15.1116 6.36982 15.4814C6.5271 15.8512 6.74601 16.2295 7.02657 16.6164C7.30712 17.0032 7.67269 17.3539 8.12327 17.6684C8.57386 17.983 9.11796 18.2423 9.75558 18.4463C10.3932 18.6504 11.1413 18.7524 12 18.7524C12.8672 18.7524 13.6174 18.6504 14.2508 18.4463C14.8842 18.2423 15.4261 17.983 15.8767 17.6684C16.3273 17.3539 16.6929 17.0032 16.9734 16.6164C17.254 16.2295 17.4729 15.8512 17.6302 15.4814C17.7875 15.1116 17.8916 14.7736 17.9426 14.4676ZM13.2115 16.4952C12.8374 16.5717 12.4293 16.61 11.9872 16.61C11.5367 16.61 11.1265 16.5717 10.7566 16.4952C10.3868 16.4187 10.0489 16.3188 9.74283 16.1955C9.43677 16.0723 9.16259 15.9299 8.9203 15.7683C8.678 15.6068 8.46334 15.441 8.2763 15.271C7.84272 14.8714 7.49841 14.4208 7.24336 13.9192C7.54091 14.2253 7.91498 14.4973 8.36557 14.7354C8.74814 14.9394 9.23698 15.1265 9.83209 15.2965C10.4272 15.4665 11.1498 15.5515 12 15.5515C12.8417 15.5515 13.56 15.4665 14.1552 15.2965C14.7503 15.1265 15.2391 14.9394 15.6217 14.7354C16.0723 14.4973 16.4421 14.2253 16.7311 13.9192C16.4761 14.4208 16.1318 14.8714 15.6982 15.271C15.5112 15.441 15.2965 15.6068 15.0542 15.7683C14.8119 15.9299 14.5377 16.0723 14.2317 16.1955C13.9256 16.3188 13.5855 16.4187 13.2115 16.4952ZM14.9075 10.7566C14.9841 11.0372 15.0436 11.3475 15.0861 11.6876C15.1201 11.3475 15.1753 11.0372 15.2519 10.7566C15.3199 10.5101 15.4049 10.2699 15.5069 10.0361C15.6089 9.80234 15.7407 9.63018 15.9022 9.51966C16.0553 9.42614 16.2508 9.33688 16.4888 9.25186C16.7269 9.16684 16.9564 9.09033 17.1775 9.02232C17.441 8.9458 17.7131 8.88204 17.9936 8.83103C17.7131 8.78002 17.441 8.72051 17.1775 8.6525C16.9564 8.59299 16.7269 8.52072 16.4888 8.43571C16.2508 8.35069 16.0553 8.25717 15.9022 8.15515C15.7407 8.06164 15.6089 7.89586 15.5069 7.65781C15.4049 7.41977 15.3199 7.17747 15.2519 6.93092C15.1753 6.65037 15.1201 6.34006 15.0861 6C15.0436 6.34006 14.9841 6.65037 14.9075 6.93092C14.8395 7.17747 14.7545 7.41977 14.6525 7.65781C14.5505 7.89586 14.423 8.06164 14.2699 8.15515C14.1084 8.25717 13.9086 8.35069 13.6706 8.43571C13.4325 8.52072 13.203 8.59299 12.9819 8.6525C12.7184 8.72051 12.4463 8.78002 12.1658 8.83103C12.4463 8.88204 12.7184 8.9458 12.9819 9.02232C13.203 9.09033 13.4325 9.16684 13.6706 9.25186C13.9086 9.33688 14.1084 9.42614 14.2699 9.51966C14.423 9.63018 14.5505 9.80234 14.6525 10.0361C14.7545 10.2699 14.8395 10.5101 14.9075 10.7566ZM10.508 11.6238C10.508 11.4198 10.5484 11.2264 10.6291 11.0436C10.7099 10.8608 10.8162 10.7014 10.9479 10.5654C11.0797 10.4293 11.237 10.3231 11.4198 10.2465C11.6026 10.17 11.796 10.1318 12 10.1318C12.204 10.1318 12.3974 10.17 12.5802 10.2465C12.763 10.3231 12.9224 10.4293 13.0584 10.5654C13.1945 10.7014 13.3029 10.8608 13.3836 11.0436C13.4644 11.2264 13.5048 11.4198 13.5048 11.6238C13.5048 11.8363 13.4644 12.034 13.3836 12.2168C13.3029 12.3996 13.1945 12.559 13.0584 12.695C12.9224 12.831 12.763 12.9373 12.5802 13.0138C12.3974 13.0903 12.204 13.1286 12 13.1286C11.796 13.1286 11.6026 13.0903 11.4198 13.0138C11.237 12.9373 11.0797 12.831 10.9479 12.695C10.8162 12.559 10.7099 12.3996 10.6291 12.2168C10.5484 12.034 10.508 11.8363 10.508 11.6238ZM12.3124 10.7694C12.3932 10.6929 12.4888 10.6546 12.5994 10.6546C12.7184 10.6546 12.814 10.6929 12.8863 10.7694C12.9586 10.8459 12.9947 10.9394 12.9947 11.0499C12.9947 11.169 12.9586 11.2667 12.8863 11.3433C12.814 11.4198 12.7184 11.458 12.5994 11.458C12.4888 11.458 12.3932 11.4198 12.3124 11.3433C12.2317 11.2667 12.1913 11.169 12.1913 11.0499C12.1913 10.9394 12.2317 10.8459 12.3124 10.7694Z" fill="#F9F9F9"/>
</svg>
