<svg width="22" height="22" viewBox="0 0 22 22" fill="none" xmlns="http://www.w3.org/2000/svg">
<mask id="path-1-inside-1_2_17355" fill="white">
<path fillRule="evenodd" clipRule="evenodd" d="M1.75 0C0.783501 0 0 0.783503 0 1.75V8.38059C0 9.34709 0.783503 10.1306 1.75 10.1306H8.38059C9.34709 10.1306 10.1306 9.34708 10.1306 8.38059V1.75C10.1306 0.783501 9.34708 0 8.38059 0H1.75ZM1.5 1.75C1.5 1.61193 1.61193 1.5 1.75 1.5H8.38059C8.51866 1.5 8.63059 1.61193 8.63059 1.75V8.38059C8.63059 8.51866 8.51866 8.63059 8.38059 8.63059H1.75C1.61193 8.63059 1.5 8.51866 1.5 8.38059V1.75ZM1.75 11.8671C0.783501 11.8671 0 12.6506 0 13.6171V20.2477C0 21.2142 0.783503 21.9977 1.75 21.9977H8.38059C9.34709 21.9977 10.1306 21.2142 10.1306 20.2477V13.6171C10.1306 12.6506 9.34708 11.8671 8.38059 11.8671H1.75ZM1.5 13.6171C1.5 13.479 1.61193 13.3671 1.75 13.3671H8.38059C8.51866 13.3671 8.63059 13.479 8.63059 13.6171V20.2477C8.63059 20.3857 8.51866 20.4977 8.38059 20.4977H1.75C1.61193 20.4977 1.5 20.3857 1.5 20.2477V13.6171ZM11.867 1.75C11.867 0.783503 12.6505 0 13.617 0H20.2476C21.2141 0 21.9976 0.783501 21.9976 1.75V8.38059C21.9976 9.34708 21.2141 10.1306 20.2476 10.1306H13.617C12.6505 10.1306 11.867 9.34709 11.867 8.38059V1.75ZM13.617 1.5C13.479 1.5 13.367 1.61193 13.367 1.75V8.38059C13.367 8.51866 13.479 8.63059 13.617 8.63059H20.2476C20.3857 8.63059 20.4976 8.51866 20.4976 8.38059V1.75C20.4976 1.61193 20.3857 1.5 20.2476 1.5H13.617ZM13.617 11.8671C12.6505 11.8671 11.867 12.6506 11.867 13.6171V20.2477C11.867 21.2142 12.6505 21.9977 13.617 21.9977H20.2476C21.2141 21.9977 21.9976 21.2142 21.9976 20.2477V13.6171C21.9976 12.6506 21.2141 11.8671 20.2476 11.8671H13.617ZM13.367 13.6171C13.367 13.479 13.479 13.3671 13.617 13.3671H20.2476C20.3857 13.3671 20.4976 13.479 20.4976 13.6171V20.2477C20.4976 20.3857 20.3857 20.4977 20.2476 20.4977H13.617C13.479 20.4977 13.367 20.3857 13.367 20.2477V13.6171Z"/>
</mask>
<path d="M1.5 1.75C1.5 1.61193 1.61193 1.5 1.75 1.5V-1.5C-0.0449269 -1.5 -1.5 -0.0449235 -1.5 1.75H1.5ZM1.5 8.38059V1.75H-1.5V8.38059H1.5ZM1.75 8.63059C1.61193 8.63059 1.5 8.51866 1.5 8.38059H-1.5C-1.5 10.1755 -0.0449237 11.6306 1.75 11.6306V8.63059ZM8.38059 8.63059H1.75V11.6306H8.38059V8.63059ZM8.63059 8.38059C8.63059 8.51866 8.51866 8.63059 8.38059 8.63059V11.6306C10.1755 11.6306 11.6306 10.1755 11.6306 8.38059H8.63059ZM8.63059 1.75V8.38059H11.6306V1.75H8.63059ZM8.38059 1.5C8.51866 1.5 8.63059 1.61193 8.63059 1.75H11.6306C11.6306 -0.0449271 10.1755 -1.5 8.38059 -1.5V1.5ZM1.75 1.5H8.38059V-1.5H1.75V1.5ZM1.75 0C0.783502 0 0 0.783502 0 1.75H3C3 2.44036 2.44036 3 1.75 3V0ZM8.38059 0H1.75V3H8.38059V0ZM10.1306 1.75C10.1306 0.7835 9.34708 0 8.38059 0V3C7.69023 3 7.13059 2.44036 7.13059 1.75H10.1306ZM10.1306 8.38059V1.75H7.13059V8.38059H10.1306ZM8.38059 10.1306C9.34708 10.1306 10.1306 9.34709 10.1306 8.38059H7.13059C7.13059 7.69023 7.69023 7.13059 8.38059 7.13059V10.1306ZM1.75 10.1306H8.38059V7.13059H1.75V10.1306ZM0 8.38059C0 9.34708 0.783499 10.1306 1.75 10.1306V7.13059C2.44036 7.13059 3 7.69023 3 8.38059H0ZM0 1.75V8.38059H3V1.75H0ZM1.5 13.6171C1.5 13.479 1.61193 13.3671 1.75 13.3671V10.3671C-0.0449266 10.3671 -1.5 11.8221 -1.5 13.6171H1.5ZM1.5 20.2477V13.6171H-1.5V20.2477H1.5ZM1.75 20.4977C1.61193 20.4977 1.5 20.3857 1.5 20.2477H-1.5C-1.5 22.0426 -0.0449243 23.4977 1.75 23.4977V20.4977ZM8.38059 20.4977H1.75V23.4977H8.38059V20.4977ZM8.63059 20.2477C8.63059 20.3857 8.51866 20.4977 8.38059 20.4977V23.4977C10.1755 23.4977 11.6306 22.0426 11.6306 20.2477H8.63059ZM8.63059 13.6171V20.2477H11.6306V13.6171H8.63059ZM8.38059 13.3671C8.51866 13.3671 8.63059 13.479 8.63059 13.6171H11.6306C11.6306 11.8221 10.1755 10.3671 8.38059 10.3671V13.3671ZM1.75 13.3671H8.38059V10.3671H1.75V13.3671ZM1.75 11.8671C0.783504 11.8671 0 12.6506 0 13.6171H3C3 14.3074 2.44036 14.8671 1.75 14.8671V11.8671ZM8.38059 11.8671H1.75V14.8671H8.38059V11.8671ZM10.1306 13.6171C10.1306 12.6506 9.34708 11.8671 8.38059 11.8671V14.8671C7.69024 14.8671 7.13059 14.3074 7.13059 13.6171H10.1306ZM10.1306 20.2477V13.6171H7.13059V20.2477H10.1306ZM8.38059 21.9977C9.3471 21.9977 10.1306 21.2141 10.1306 20.2477H7.13059C7.13059 19.5573 7.69022 18.9977 8.38059 18.9977V21.9977ZM1.75 21.9977H8.38059V18.9977H1.75V21.9977ZM0 20.2477C0 21.2141 0.783496 21.9977 1.75 21.9977V18.9977C2.44036 18.9977 3 19.5573 3 20.2477H0ZM0 13.6171V20.2477H3V13.6171H0ZM13.617 -1.5C11.8221 -1.5 10.367 -0.0449237 10.367 1.75H13.367C13.367 1.61193 13.479 1.5 13.617 1.5V-1.5ZM20.2476 -1.5H13.617V1.5H20.2476V-1.5ZM23.4976 1.75C23.4976 -0.0449287 22.0425 -1.5 20.2476 -1.5V1.5C20.3857 1.5 20.4976 1.61193 20.4976 1.75H23.4976ZM23.4976 8.38059V1.75H20.4976V8.38059H23.4976ZM20.2476 11.6306C22.0426 11.6306 23.4976 10.1755 23.4976 8.38059H20.4976C20.4976 8.51866 20.3857 8.63059 20.2476 8.63059V11.6306ZM13.617 11.6306H20.2476V8.63059H13.617V11.6306ZM10.367 8.38059C10.367 10.1755 11.8221 11.6306 13.617 11.6306V8.63059C13.479 8.63059 13.367 8.51866 13.367 8.38059H10.367ZM10.367 1.75V8.38059H13.367V1.75H10.367ZM14.867 1.75C14.867 2.44035 14.3074 3 13.617 3V0C12.6505 0 11.867 0.783503 11.867 1.75H14.867ZM14.867 8.38059V1.75H11.867V8.38059H14.867ZM13.617 7.13059C14.3074 7.13059 14.867 7.69023 14.867 8.38059H11.867C11.867 9.34708 12.6505 10.1306 13.617 10.1306V7.13059ZM20.2476 7.13059H13.617V10.1306H20.2476V7.13059ZM18.9976 8.38059C18.9976 7.69023 19.5573 7.13059 20.2476 7.13059V10.1306C21.2141 10.1306 21.9976 9.34709 21.9976 8.38059H18.9976ZM18.9976 1.75V8.38059H21.9976V1.75H18.9976ZM20.2476 3C19.5573 3 18.9976 2.44037 18.9976 1.75H21.9976C21.9976 0.783489 21.2141 0 20.2476 0V3ZM13.617 3H20.2476V0H13.617V3ZM13.367 13.6171C13.367 13.479 13.479 13.3671 13.617 13.3671V10.3671C11.8221 10.3671 10.367 11.8221 10.367 13.6171H13.367ZM13.367 20.2477V13.6171H10.367V20.2477H13.367ZM13.617 20.4977C13.479 20.4977 13.367 20.3857 13.367 20.2477H10.367C10.367 22.0426 11.8221 23.4977 13.617 23.4977V20.4977ZM20.2476 20.4977H13.617V23.4977H20.2476V20.4977ZM20.4976 20.2477C20.4976 20.3857 20.3857 20.4977 20.2476 20.4977V23.4977C22.0426 23.4977 23.4976 22.0426 23.4976 20.2477H20.4976ZM20.4976 13.6171V20.2477H23.4976V13.6171H20.4976ZM20.2476 13.3671C20.3857 13.3671 20.4976 13.479 20.4976 13.6171H23.4976C23.4976 11.8221 22.0425 10.3671 20.2476 10.3671V13.3671ZM13.617 13.3671H20.2476V10.3671H13.617V13.3671ZM13.617 11.8671C12.6505 11.8671 11.867 12.6506 11.867 13.6171H14.867C14.867 14.3074 14.3074 14.8671 13.617 14.8671V11.8671ZM20.2476 11.8671H13.617V14.8671H20.2476V11.8671ZM21.9976 13.6171C21.9976 12.6506 21.2141 11.8671 20.2476 11.8671V14.8671C19.5573 14.8671 18.9976 14.3074 18.9976 13.6171H21.9976ZM21.9976 20.2477V13.6171H18.9976V20.2477H21.9976ZM20.2476 21.9977C21.2141 21.9977 21.9976 21.2141 21.9976 20.2477H18.9976C18.9976 19.5573 19.5573 18.9977 20.2476 18.9977V21.9977ZM13.617 21.9977H20.2476V18.9977H13.617V21.9977ZM11.867 20.2477C11.867 21.2141 12.6505 21.9977 13.617 21.9977V18.9977C14.3074 18.9977 14.867 19.5573 14.867 20.2477H11.867ZM11.867 13.6171V20.2477H14.867V13.6171H11.867Z" fill="white" mask="url(#path-1-inside-1_2_17355)"/>
</svg>
