<svg width="24" height="24" viewBox="0 0 24 24" fill="none" xmlns="http://www.w3.org/2000/svg">
<rect x="1" y="1" width="16" height="16" rx="2" fill="#D8D8D8" fill-opacity="0.01" stroke="white" stroke-width="1.5"/>
<path fillRule="evenodd" clipRule="evenodd" d="M5.3455 6.47021V10.1671C5.3455 10.7734 5.1344 11.2557 4.71218 11.6141C4.35624 11.9161 3.90334 12.067 3.35348 12.067C3.23075 12.067 3.11292 12.0597 3 12.0449V11.1465C3.11292 11.176 3.23075 11.1907 3.35348 11.1907C3.68242 11.1907 3.94876 11.1084 4.1525 10.944C4.3587 10.7672 4.4618 10.5083 4.4618 10.1671V6.47021H5.3455ZM7.19024 6.47021H6.45382V12.067H7.32648V10.1744H8.11077C8.71709 10.1744 9.18226 9.98786 9.50629 9.61474C9.80822 9.29071 9.95919 8.85868 9.95919 8.31863C9.95919 7.78596 9.80822 7.35392 9.50629 7.02253C9.1749 6.65432 8.70973 6.47021 8.11077 6.47021H7.19024ZM9.1749 8.31863C9.1749 8.64757 9.09144 8.90409 8.92452 9.0882C8.74287 9.28458 8.47162 9.38276 8.11077 9.38276H7.32648V7.2545H8.11077C8.46671 7.2545 8.73796 7.35515 8.92452 7.55644C9.09144 7.74054 9.1749 7.99461 9.1749 8.31863ZM15 9.95717V9.16552H13.0706V9.95717H14.1273V10.9882H14.12C14.0218 11.0397 13.9187 11.0802 13.8107 11.1097L13.7959 11.117C13.7788 11.117 13.7677 11.1195 13.7628 11.1244C13.753 11.1244 13.7456 11.1269 13.7407 11.1318H13.7186C13.7137 11.1367 13.7039 11.1391 13.6892 11.1391C13.6843 11.144 13.6793 11.1465 13.6744 11.1465C13.6573 11.149 13.6296 11.1539 13.5916 11.1612C13.5535 11.1686 13.5259 11.1735 13.5087 11.176H13.494H13.4609C13.4511 11.176 13.4461 11.1784 13.4461 11.1833H13.4093H13.3872H13.3651H13.3357C13.3308 11.1882 13.3222 11.1907 13.3099 11.1907H13.2584C13.0031 11.1907 12.7588 11.1422 12.5256 11.0452C12.2924 10.9483 12.085 10.809 11.9033 10.6273C11.6677 10.3917 11.5032 10.1131 11.4099 9.79148C11.3731 9.65647 11.351 9.51532 11.3437 9.36804C11.3388 9.34349 11.3363 9.31035 11.3363 9.26862C11.3363 9.22443 11.3388 9.19007 11.3437 9.16552V9.08083C11.3486 9.02683 11.3608 8.95196 11.3805 8.85622C11.3805 8.84886 11.3829 8.84272 11.3878 8.83781C11.432 8.63652 11.5106 8.44628 11.6235 8.26709C11.6235 8.25727 11.6284 8.24745 11.6382 8.23763C11.6431 8.23026 11.6505 8.2186 11.6603 8.20265C11.6701 8.18669 11.6775 8.17503 11.6824 8.16767L11.6971 8.15294C11.734 8.09648 11.7671 8.05107 11.7966 8.0167C11.8015 8.0167 11.8039 8.01425 11.8039 8.00934C11.8162 7.99461 11.8346 7.9762 11.8592 7.95411C11.8837 7.93201 11.8984 7.91851 11.9033 7.9136C12.0064 7.80314 12.1169 7.71231 12.2347 7.64113C12.2544 7.63131 12.2666 7.62394 12.2716 7.61903C12.5686 7.43738 12.8975 7.34656 13.2584 7.34656H13.3099H13.3283H13.3578H13.3799C13.3823 7.34656 13.386 7.34778 13.3909 7.35024C13.3958 7.35269 13.3995 7.35392 13.402 7.35392H13.4461H13.4719C13.4768 7.35883 13.4867 7.36129 13.5014 7.36129H13.5161C13.5186 7.36129 13.5235 7.36251 13.5308 7.36497C13.5382 7.36742 13.5431 7.36865 13.5456 7.36865H13.5603C13.5701 7.3711 13.5867 7.37356 13.61 7.37601C13.6333 7.37847 13.6499 7.38092 13.6597 7.38338C13.6646 7.38829 13.6695 7.39074 13.6744 7.39074C13.6892 7.39074 13.699 7.3932 13.7039 7.39811H13.726C13.7309 7.40302 13.7383 7.40547 13.7481 7.40547C13.8414 7.43002 13.9567 7.47298 14.0942 7.53434C14.2464 7.60799 14.3728 7.68899 14.4735 7.77736V6.74269H14.4661L14.4219 6.7206C14.417 6.7206 14.4145 6.71814 14.4145 6.71323C14.1151 6.57822 13.8009 6.49967 13.4719 6.47758C13.4572 6.47267 13.4339 6.47021 13.402 6.47021H13.3946H13.3357H13.3283H13.2584C12.8656 6.47021 12.5035 6.54386 12.1721 6.69114C11.8481 6.82124 11.5523 7.02008 11.2847 7.28764C11.027 7.54539 10.8257 7.84119 10.6809 8.17503C10.5581 8.46469 10.4845 8.78135 10.46 9.12502V9.26862C10.46 9.33244 10.4649 9.42572 10.4747 9.54846C10.4943 9.80375 10.5631 10.0725 10.6809 10.3548C10.8208 10.6862 11.0221 10.9833 11.2847 11.2459C11.4615 11.43 11.6677 11.5859 11.9033 11.7135C12.0064 11.7749 12.096 11.8203 12.1721 11.8498C12.1844 11.8547 12.2034 11.8621 12.2292 11.8719C12.255 11.8817 12.274 11.8891 12.2863 11.894C12.2961 11.8964 12.3096 11.9013 12.3268 11.9087C12.344 11.9161 12.3575 11.921 12.3673 11.9234H12.3783C12.6484 12.0192 12.9417 12.067 13.2584 12.067H13.3283H13.3357H13.3946H13.402C13.7628 12.0449 14.0967 11.9639 14.4035 11.824C14.4084 11.8191 14.4121 11.8166 14.4145 11.8166C14.4195 11.8142 14.428 11.8105 14.4403 11.8056C14.4526 11.8007 14.4612 11.797 14.4661 11.7945C14.4857 11.7847 14.498 11.7774 14.5029 11.7725H14.5176L14.5324 11.7577C14.5496 11.7577 14.5631 11.7528 14.5729 11.743C14.5753 11.7405 14.579 11.7381 14.5839 11.7356C14.5888 11.7332 14.5925 11.7307 14.595 11.7283C14.5999 11.7258 14.606 11.7234 14.6134 11.7209C14.6207 11.7185 14.6269 11.716 14.6318 11.7135C14.6342 11.7111 14.6379 11.7086 14.6428 11.7062C14.6477 11.7037 14.6514 11.7013 14.6539 11.6988C14.6563 11.6964 14.66 11.6939 14.6649 11.6914C14.6698 11.689 14.6735 11.6865 14.676 11.6841C14.6809 11.6816 14.6907 11.673 14.7054 11.6583C14.7177 11.6583 14.7288 11.6534 14.7386 11.6436C14.7435 11.6436 14.7508 11.6387 14.7607 11.6289C14.7705 11.6289 14.7803 11.6239 14.7901 11.6141C14.795 11.6092 14.7999 11.6068 14.8048 11.6068L15 11.4705V9.95717Z" fill="#F9F9F9"/>
<path d="M5.3455 6.47021H5.4455V6.37021H5.3455V6.47021ZM4.71218 11.6141L4.77687 11.6904L4.7769 11.6904L4.71218 11.6141ZM3 12.0449H2.9V12.1327L2.98707 12.1441L3 12.0449ZM3 11.1465L3.02524 11.0497L2.9 11.0171V11.1465H3ZM4.1525 10.944L4.21534 11.0218L4.21758 11.0199L4.1525 10.944ZM4.4618 6.47021V6.37021H4.3618V6.47021H4.4618ZM6.45382 6.47021V6.37021H6.35382V6.47021H6.45382ZM6.45382 12.067H6.35382V12.167H6.45382V12.067ZM7.32648 12.067V12.167H7.42648V12.067H7.32648ZM7.32648 10.1744V10.0744H7.22648V10.1744H7.32648ZM9.50629 9.61474L9.43308 9.54652L9.43079 9.54917L9.50629 9.61474ZM9.50629 7.02253L9.43196 7.08943L9.43237 7.08988L9.50629 7.02253ZM8.92452 9.0882L8.99793 9.1561L8.9986 9.15536L8.92452 9.0882ZM7.32648 9.38276H7.22648V9.48276H7.32648V9.38276ZM7.32648 7.2545V7.1545H7.22648V7.2545H7.32648ZM8.92452 7.55644L8.9986 7.48926L8.99786 7.48846L8.92452 7.55644ZM15 9.16552H15.1V9.06552H15V9.16552ZM13.0706 9.16552V9.06552H12.9706V9.16552H13.0706ZM13.0706 9.95717H12.9706V10.0572H13.0706V9.95717ZM14.1273 9.95717H14.2273V9.85717H14.1273V9.95717ZM14.1273 10.9882V11.0882H14.2273V10.9882H14.1273ZM14.12 10.9882V10.8882H14.0953L14.0735 10.8996L14.12 10.9882ZM13.8107 11.1097L13.7844 11.0132L13.7748 11.0158L13.766 11.0202L13.8107 11.1097ZM13.7959 11.117V11.217H13.8196L13.8407 11.2065L13.7959 11.117ZM13.7628 11.1244V11.2244H13.8042L13.8335 11.1951L13.7628 11.1244ZM13.7407 11.1318V11.2318H13.7821L13.8114 11.2025L13.7407 11.1318ZM13.7186 11.1318V11.0318H13.6772L13.6479 11.0611L13.7186 11.1318ZM13.6892 11.1391V11.0391H13.6477L13.6185 11.0684L13.6892 11.1391ZM13.6744 11.1465V11.0465H13.6673L13.6603 11.0475L13.6744 11.1465ZM13.5916 11.1612L13.6106 11.2594H13.6106L13.5916 11.1612ZM13.5087 11.176V11.276H13.5159L13.5229 11.2749L13.5087 11.176ZM13.4461 11.1833V11.2833H13.5461V11.1833H13.4461ZM13.3357 11.1833V11.0833H13.2943L13.265 11.1126L13.3357 11.1833ZM11.9033 10.6273L11.9741 10.5566H11.9741L11.9033 10.6273ZM11.4099 9.79148L11.3135 9.81779L11.3139 9.81934L11.4099 9.79148ZM11.3437 9.36804L11.4435 9.36304L11.4432 9.35567L11.4417 9.34842L11.3437 9.36804ZM11.3437 9.16552L11.4417 9.18513L11.4437 9.17542V9.16552H11.3437ZM11.3437 9.08083L11.2437 9.07174V9.08083H11.3437ZM11.3805 8.85622L11.4784 8.87632L11.4805 8.86637V8.85622H11.3805ZM11.3878 8.83781L11.4586 8.90852L11.4792 8.88783L11.4855 8.85925L11.3878 8.83781ZM11.6235 8.26709L11.7081 8.3204L11.7235 8.29596V8.26709H11.6235ZM11.6382 8.23763L11.7089 8.30834L11.7159 8.30133L11.7214 8.29309L11.6382 8.23763ZM11.6824 8.16767L11.6117 8.09696L11.6047 8.10396L11.5992 8.1122L11.6824 8.16767ZM11.6971 8.15294L11.7679 8.22365L11.7752 8.21629L11.7809 8.20757L11.6971 8.15294ZM11.7966 8.0167V7.9167H11.7506L11.7206 7.95162L11.7966 8.0167ZM11.8039 8.00934L11.7271 7.94532L11.7039 7.97313V8.00934H11.8039ZM11.9033 7.9136L11.9741 7.98436L11.9765 7.98183L11.9033 7.9136ZM12.2347 7.64113L12.1899 7.5514L12.183 7.55553L12.2347 7.64113ZM12.2716 7.61903L12.2194 7.53372L12.2092 7.53992L12.2008 7.54832L12.2716 7.61903ZM13.4719 7.35392L13.5426 7.28321L13.5133 7.25392H13.4719V7.35392ZM13.5603 7.36865L13.5846 7.27164L13.5726 7.26865H13.5603V7.36865ZM13.6597 7.38338L13.7304 7.31267L13.7108 7.29308L13.684 7.28636L13.6597 7.38338ZM13.7039 7.39811L13.6332 7.46882L13.6625 7.49811H13.7039V7.39811ZM13.726 7.39811L13.7967 7.3274L13.7674 7.29811H13.726V7.39811ZM13.7481 7.40547L13.7735 7.30876L13.761 7.30547H13.7481V7.40547ZM14.0942 7.53434L14.1378 7.44429L14.135 7.44303L14.0942 7.53434ZM14.4735 7.77736L14.4075 7.85251L14.5735 7.99825V7.77736H14.4735ZM14.4735 6.74269H14.5735V6.64269H14.4735V6.74269ZM14.4661 6.74269L14.4214 6.83213L14.4425 6.84269H14.4661V6.74269ZM14.4219 6.7206L14.4666 6.63116L14.4455 6.6206H14.4219V6.7206ZM14.4145 6.71323H14.5145V6.64862L14.4556 6.62207L14.4145 6.71323ZM13.4719 6.47758L13.4403 6.57245L13.4524 6.5765L13.4652 6.57735L13.4719 6.47758ZM12.1721 6.69114L12.2094 6.784L12.2128 6.78252L12.1721 6.69114ZM11.2847 7.28764L11.214 7.21693L11.2847 7.28764ZM10.6809 8.17503L10.5891 8.13523L10.5888 8.13602L10.6809 8.17503ZM10.46 9.12502L10.36 9.11787V9.12502H10.46ZM10.4747 9.54846L10.5744 9.54079L10.5744 9.54049L10.4747 9.54846ZM10.6809 10.3548L10.5886 10.3934L10.5888 10.3937L10.6809 10.3548ZM11.2847 11.2459L11.3569 11.1766L11.3555 11.1752L11.2847 11.2459ZM11.9033 11.7135L11.9545 11.6275L11.951 11.6256L11.9033 11.7135ZM12.1721 11.8498L12.2093 11.7569L12.2082 11.7565L12.1721 11.8498ZM12.2292 11.8719L12.2648 11.7784L12.2648 11.7784L12.2292 11.8719ZM12.2863 11.894L12.2488 11.9877L12.262 11.991L12.2863 11.894ZM12.3268 11.9087L12.3662 11.8168L12.3662 11.8168L12.3268 11.9087ZM12.3673 11.9234L12.343 12.0204L12.355 12.0234H12.3673V11.9234ZM12.3783 11.9234L12.4118 11.8292L12.3955 11.8234H12.3783V11.9234ZM13.402 12.067V12.1672L13.4081 12.1668L13.402 12.067ZM14.4035 11.824L14.445 11.915L14.4614 11.9075L14.4742 11.8947L14.4035 11.824ZM14.4145 11.8166V11.9166H14.4382L14.4593 11.9061L14.4145 11.8166ZM14.5029 11.7725V11.6725H14.4615L14.4322 11.7018L14.5029 11.7725ZM14.5176 11.7725V11.8725H14.5591L14.5884 11.8432L14.5176 11.7725ZM14.5324 11.7577V11.6577H14.491L14.4617 11.687L14.5324 11.7577ZM14.595 11.7283L14.5502 11.6388L14.5357 11.6461L14.5243 11.6576L14.595 11.7283ZM14.6318 11.7135L14.6765 11.803L14.691 11.7957L14.7025 11.7843L14.6318 11.7135ZM14.6428 11.7062L14.6876 11.7956L14.6876 11.7956L14.6428 11.7062ZM14.6539 11.6988L14.5832 11.6281L14.5832 11.6281L14.6539 11.6988ZM14.6649 11.6914L14.7097 11.7809L14.7097 11.7809L14.6649 11.6914ZM14.676 11.6841L14.6313 11.5946L14.6167 11.6019L14.6052 11.6134L14.676 11.6841ZM14.7054 11.6583V11.5583H14.664L14.6347 11.5876L14.7054 11.6583ZM14.7386 11.6436V11.5436H14.6971L14.6679 11.5729L14.7386 11.6436ZM14.7607 11.6289V11.5289H14.7192L14.69 11.5581L14.7607 11.6289ZM14.7901 11.6141L14.7194 11.5434L14.7194 11.5434L14.7901 11.6141ZM14.8048 11.6068V11.7068H14.8363L14.8621 11.6888L14.8048 11.6068ZM15 11.4705L15.0572 11.5525L15.1 11.5227V11.4705H15ZM5.4455 10.1671V6.47021H5.2455V10.1671H5.4455ZM4.7769 11.6904C5.22379 11.311 5.4455 10.7996 5.4455 10.1671H5.2455C5.2455 10.7472 5.04501 11.2004 4.64747 11.5379L4.7769 11.6904ZM3.35348 12.167C3.92261 12.167 4.39975 12.0103 4.77687 11.6904L4.64749 11.5379C4.31274 11.8218 3.88408 11.967 3.35348 11.967V12.167ZM2.98707 12.1441C3.10459 12.1594 3.22675 12.167 3.35348 12.167V11.967C3.23474 11.967 3.12125 11.9599 3.01293 11.9458L2.98707 12.1441ZM2.9 11.1465V12.0449H3.1V11.1465H2.9ZM3.35348 11.0907C3.23882 11.0907 3.1295 11.0769 3.02524 11.0497L2.97476 11.2433C3.09633 11.275 3.22267 11.2907 3.35348 11.2907V11.0907ZM4.08969 10.8662C3.90789 11.0129 3.66555 11.0907 3.35348 11.0907V11.2907C3.69929 11.2907 3.98962 11.204 4.21531 11.0218L4.08969 10.8662ZM4.3618 10.1671C4.3618 10.4872 4.26597 10.715 4.08742 10.8681L4.21758 11.0199C4.45143 10.8195 4.5618 10.5294 4.5618 10.1671H4.3618ZM4.3618 6.47021V10.1671H4.5618V6.47021H4.3618ZM5.3455 6.37021H4.4618V6.57021H5.3455V6.37021ZM6.45382 6.57021H7.19024V6.37021H6.45382V6.57021ZM6.55382 12.067V6.47021H6.35382V12.067H6.55382ZM7.32648 11.967H6.45382V12.167H7.32648V11.967ZM7.22648 10.1744V12.067H7.42648V10.1744H7.22648ZM8.11077 10.0744H7.32648V10.2744H8.11077V10.0744ZM9.43079 9.54917C9.12999 9.89554 8.69527 10.0744 8.11077 10.0744V10.2744C8.73891 10.2744 9.23454 10.0802 9.58179 9.68031L9.43079 9.54917ZM9.85919 8.31863C9.85919 8.83922 9.7142 9.24492 9.43313 9.54657L9.57945 9.68291C9.90224 9.3365 10.0592 8.87813 10.0592 8.31863H9.85919ZM9.43237 7.08988C9.71446 7.39949 9.85919 7.80591 9.85919 8.31863H10.0592C10.0592 7.766 9.90199 7.30836 9.58021 6.95518L9.43237 7.08988ZM8.11077 6.57021C8.68782 6.57021 9.12345 6.74664 9.43196 7.08943L9.58062 6.95563C9.22635 6.562 8.73164 6.37021 8.11077 6.37021V6.57021ZM7.19024 6.57021H8.11077V6.37021H7.19024V6.57021ZM8.9986 9.15536C9.18699 8.94758 9.2749 8.6642 9.2749 8.31863H9.0749C9.0749 8.63094 8.99588 8.8606 8.85043 9.02103L8.9986 9.15536ZM8.11077 9.48276C8.48936 9.48276 8.79142 9.37935 8.99793 9.1561L8.85111 9.02029C8.69431 9.1898 8.45387 9.28276 8.11077 9.28276V9.48276ZM7.32648 9.48276H8.11077V9.28276H7.32648V9.48276ZM7.22648 7.2545V9.38276H7.42648V7.2545H7.22648ZM8.11077 7.1545H7.32648V7.3545H8.11077V7.1545ZM8.99786 7.48846C8.78716 7.26113 8.48582 7.1545 8.11077 7.1545V7.3545C8.4476 7.3545 8.68875 7.44917 8.85117 7.62441L8.99786 7.48846ZM9.2749 8.31863C9.2749 7.97752 9.18676 7.6968 8.9986 7.48927L8.85043 7.62361C8.99612 7.78429 9.0749 8.0117 9.0749 8.31863H9.2749ZM14.9 9.16552V9.95717H15.1V9.16552H14.9ZM13.0706 9.26552H15V9.06552H13.0706V9.26552ZM13.1706 9.95717V9.16552H12.9706V9.95717H13.1706ZM14.1273 9.85717H13.0706V10.0572H14.1273V9.85717ZM14.2273 10.9882V9.95717H14.0273V10.9882H14.2273ZM14.12 11.0882H14.1273V10.8882H14.12V11.0882ZM13.837 11.2062C13.9519 11.1748 14.0618 11.1317 14.1665 11.0767L14.0735 10.8996C13.9818 10.9478 13.8855 10.9856 13.7844 11.0132L13.837 11.2062ZM13.8407 11.2065L13.8554 11.1991L13.766 11.0202L13.7512 11.0276L13.8407 11.2065ZM13.8335 11.1951C13.8245 11.2041 13.8155 11.2092 13.8095 11.212C13.8035 11.2148 13.7988 11.216 13.7965 11.2165C13.7922 11.2174 13.7913 11.217 13.7959 11.217V11.017C13.7834 11.017 13.7684 11.0179 13.7531 11.0213C13.7396 11.0243 13.714 11.0318 13.6921 11.0537L13.8335 11.1951ZM13.8114 11.2025C13.791 11.2229 13.7684 11.2244 13.7628 11.2244V11.0244C13.7376 11.0244 13.7003 11.0308 13.67 11.0611L13.8114 11.2025ZM13.7186 11.2318H13.7407V11.0318H13.7186V11.2318ZM13.6892 11.2391C13.7014 11.2391 13.7163 11.2382 13.7318 11.2343C13.7468 11.2306 13.7695 11.2223 13.7893 11.2025L13.6479 11.0611C13.6628 11.0461 13.6782 11.0416 13.6833 11.0403C13.689 11.0388 13.6917 11.0391 13.6892 11.0391V11.2391ZM13.6744 11.2465C13.7152 11.2465 13.7441 11.2257 13.7599 11.2098L13.6185 11.0684C13.6244 11.0624 13.6435 11.0465 13.6744 11.0465V11.2465ZM13.6106 11.2594C13.6485 11.2521 13.674 11.2476 13.6886 11.2455L13.6603 11.0475C13.6405 11.0503 13.6108 11.0557 13.5726 11.063L13.6106 11.2594ZM13.5229 11.2749C13.5427 11.2721 13.5724 11.2668 13.6106 11.2594L13.5726 11.063C13.5347 11.0704 13.5092 11.0749 13.4946 11.077L13.5229 11.2749ZM13.494 11.276H13.5087V11.076H13.494V11.276ZM13.4609 11.276H13.494V11.076H13.4609V11.276ZM13.5461 11.1833C13.5461 11.1996 13.5418 11.2183 13.5303 11.2356C13.5192 11.2522 13.5052 11.2619 13.4946 11.2672C13.4761 11.2765 13.4611 11.276 13.4609 11.276V11.076C13.4509 11.076 13.4285 11.0767 13.4051 11.0884C13.392 11.0949 13.3762 11.1061 13.3639 11.1246C13.3511 11.1437 13.3461 11.1646 13.3461 11.1833H13.5461ZM13.4093 11.2833H13.4461V11.0833H13.4093V11.2833ZM13.3872 11.2833H13.4093V11.0833H13.3872V11.2833ZM13.3651 11.2833H13.3872V11.0833H13.3651V11.2833ZM13.3357 11.2833H13.3651V11.0833H13.3357V11.2833ZM13.3099 11.2907C13.33 11.2907 13.3727 11.2877 13.4064 11.254L13.265 11.1126C13.2775 11.1001 13.2906 11.0948 13.2981 11.0927C13.3019 11.0916 13.3049 11.0911 13.3067 11.0909C13.3086 11.0907 13.3097 11.0907 13.3099 11.0907V11.2907ZM13.2584 11.2907H13.3099V11.0907H13.2584V11.2907ZM12.4872 11.1376C12.7327 11.2397 12.99 11.2907 13.2584 11.2907V11.0907C13.0161 11.0907 12.7849 11.0447 12.564 10.9529L12.4872 11.1376ZM11.8326 10.698C12.0234 10.8888 12.2417 11.0355 12.4872 11.1376L12.564 10.9529C12.3431 10.8611 12.1466 10.7292 11.9741 10.5566L11.8326 10.698ZM11.3139 9.81934C11.4119 10.157 11.585 10.4504 11.8326 10.698L11.9741 10.5566C11.7504 10.3329 11.5946 10.0691 11.506 9.76362L11.3139 9.81934ZM11.2438 9.37303C11.2515 9.52714 11.2746 9.67545 11.3135 9.81779L11.5064 9.76517C11.4716 9.63748 11.4506 9.50351 11.4435 9.36304L11.2438 9.37303ZM11.2363 9.26862C11.2363 9.3132 11.2388 9.3538 11.2456 9.38765L11.4417 9.34842C11.4387 9.33318 11.4363 9.3075 11.4363 9.26862H11.2363ZM11.2456 9.14591C11.2388 9.18001 11.2363 9.22203 11.2363 9.26862H11.4363C11.4363 9.22684 11.4387 9.20012 11.4417 9.18513L11.2456 9.14591ZM11.2437 9.08083V9.16552H11.4437V9.08083H11.2437ZM11.2825 8.83613C11.2626 8.93312 11.2495 9.01224 11.2441 9.07178L11.4433 9.08989C11.4477 9.04141 11.4591 8.9708 11.4784 8.87632L11.2825 8.83613ZM11.3171 8.7671C11.2922 8.79199 11.2805 8.82412 11.2805 8.85622H11.4805C11.4805 8.86381 11.4792 8.87322 11.4752 8.88324C11.4711 8.89337 11.4652 8.90189 11.4586 8.90852L11.3171 8.7671ZM11.5389 8.21377C11.42 8.40248 11.3369 8.60347 11.2902 8.81637L11.4855 8.85925C11.5272 8.66958 11.6012 8.49008 11.7081 8.3204L11.5389 8.21377ZM11.5675 8.16692C11.5468 8.18764 11.5235 8.22139 11.5235 8.26709H11.7235C11.7235 8.29314 11.71 8.30726 11.7089 8.30834L11.5675 8.16692ZM11.5752 8.15024C11.5654 8.16603 11.5589 8.1764 11.555 8.18217L11.7214 8.29309C11.7274 8.28413 11.7356 8.27118 11.7455 8.25506L11.5752 8.15024ZM11.5992 8.1122C11.5932 8.12116 11.5851 8.13412 11.5752 8.15024L11.7455 8.25506C11.7552 8.23926 11.7618 8.2289 11.7656 8.22314L11.5992 8.1122ZM11.6264 8.08223L11.6117 8.09696L11.7531 8.23838L11.7679 8.22365L11.6264 8.08223ZM11.7206 7.95162C11.6873 7.99048 11.6516 8.03978 11.6134 8.09831L11.7809 8.20757C11.8164 8.15318 11.8469 8.11166 11.8725 8.08178L11.7206 7.95162ZM11.7039 8.00934C11.7039 7.99638 11.7072 7.96829 11.7314 7.94415C11.7555 7.92001 11.7836 7.9167 11.7966 7.9167V8.1167C11.8144 8.1167 11.8462 8.11217 11.8728 8.08557C11.8994 8.05898 11.9039 8.02721 11.9039 8.00934H11.7039ZM11.7923 7.87978C11.7663 7.90314 11.7439 7.92522 11.7271 7.94532L11.8807 8.07336C11.8886 8.06399 11.9029 8.04926 11.9261 8.02844L11.7923 7.87978ZM11.8326 7.84289C11.8327 7.84283 11.8325 7.84305 11.8319 7.84365C11.8313 7.84421 11.8305 7.84497 11.8294 7.84594C11.8273 7.8479 11.8246 7.85046 11.821 7.85369C11.814 7.86015 11.8044 7.86882 11.7923 7.87978L11.9261 8.02844C11.9496 8.0072 11.9668 7.99155 11.9741 7.98431L11.8326 7.84289ZM12.183 7.55553C12.0566 7.63193 11.939 7.72881 11.8302 7.84537L11.9765 7.98183C12.0739 7.87746 12.1772 7.79269 12.2864 7.72672L12.183 7.55553ZM12.2008 7.54832C12.205 7.54421 12.2081 7.542 12.2084 7.5418C12.209 7.54136 12.2087 7.54157 12.2072 7.54249C12.2041 7.54436 12.1986 7.54738 12.19 7.55168L12.2795 7.73057C12.2905 7.72505 12.301 7.71948 12.3101 7.71399C12.3175 7.70956 12.3307 7.70133 12.3423 7.68974L12.2008 7.54832ZM13.2584 7.24656C12.8798 7.24656 12.5327 7.34211 12.2194 7.53372L12.3237 7.70434C12.6045 7.53266 12.9152 7.44656 13.2584 7.44656V7.24656ZM13.3099 7.24656H13.2584V7.44656H13.3099V7.24656ZM13.3283 7.24656H13.3099V7.44656H13.3283V7.24656ZM13.3578 7.24656H13.3283V7.44656H13.3578V7.24656ZM13.3799 7.24656H13.3578V7.44656H13.3799V7.24656ZM13.4356 7.2608C13.4299 7.25795 13.4078 7.24656 13.3799 7.24656V7.44656C13.3724 7.44656 13.3664 7.44565 13.3623 7.44485C13.3582 7.44402 13.355 7.44305 13.3529 7.44235C13.3488 7.44099 13.3464 7.43978 13.3462 7.43968L13.4356 7.2608ZM13.402 7.25392C13.4094 7.25392 13.4155 7.25483 13.4195 7.25563C13.4236 7.25646 13.4269 7.25743 13.429 7.25813C13.433 7.25949 13.4354 7.2607 13.4356 7.2608L13.3462 7.43968C13.3519 7.44253 13.374 7.45392 13.402 7.45392V7.25392ZM13.4461 7.25392H13.402V7.45392H13.4461V7.25392ZM13.4719 7.25392H13.4461V7.45392H13.4719V7.25392ZM13.5014 7.26129C13.4988 7.26129 13.5015 7.261 13.5072 7.26243C13.5123 7.26371 13.5277 7.26828 13.5426 7.28321L13.4012 7.42463C13.4211 7.44447 13.4438 7.45273 13.4587 7.45646C13.4743 7.46034 13.4892 7.46129 13.5014 7.46129V7.26129ZM13.5161 7.26129H13.5014V7.46129H13.5161V7.26129ZM13.5625 7.2701C13.5575 7.26844 13.5518 7.26666 13.5459 7.26519C13.542 7.26423 13.5302 7.26129 13.5161 7.26129V7.46129C13.5092 7.46129 13.504 7.46049 13.502 7.46016C13.4995 7.45975 13.4979 7.45935 13.4974 7.45922C13.4964 7.45898 13.4968 7.45904 13.4992 7.45984L13.5625 7.2701ZM13.5456 7.26865C13.5525 7.26865 13.5577 7.26944 13.5597 7.26978C13.5621 7.27019 13.5638 7.27059 13.5643 7.27072C13.5653 7.27096 13.5648 7.27089 13.5625 7.2701L13.4992 7.45984C13.5042 7.4615 13.5099 7.46327 13.5158 7.46474C13.5197 7.46571 13.5314 7.46865 13.5456 7.46865V7.26865ZM13.5603 7.26865H13.5456V7.46865H13.5603V7.26865ZM13.6205 7.27656C13.6097 7.27543 13.6012 7.27437 13.5947 7.27341C13.5915 7.27294 13.5891 7.27252 13.5872 7.27218C13.5853 7.27182 13.5845 7.27163 13.5846 7.27164L13.536 7.46566C13.5533 7.46998 13.576 7.47299 13.5995 7.47546L13.6205 7.27656ZM13.684 7.28636C13.6667 7.28205 13.644 7.27904 13.6205 7.27656L13.5995 7.47546C13.6103 7.4766 13.6188 7.47766 13.6253 7.47862C13.6285 7.47909 13.631 7.47951 13.6328 7.47985C13.6347 7.4802 13.6355 7.4804 13.6355 7.48039L13.684 7.28636ZM13.6744 7.29074C13.7054 7.29074 13.7244 7.30668 13.7304 7.31267L13.589 7.45409C13.6048 7.4699 13.6337 7.49074 13.6744 7.49074V7.29074ZM13.7746 7.3274C13.7548 7.30755 13.732 7.2993 13.7171 7.29557C13.7016 7.29168 13.6866 7.29074 13.6744 7.29074V7.49074C13.677 7.49074 13.6743 7.49103 13.6686 7.4896C13.6635 7.48832 13.6481 7.48375 13.6332 7.46882L13.7746 7.3274ZM13.726 7.29811H13.7039V7.49811H13.726V7.29811ZM13.7481 7.30547C13.7537 7.30547 13.7762 7.30694 13.7967 7.3274L13.6553 7.46882C13.6856 7.49909 13.7228 7.50547 13.7481 7.50547V7.30547ZM14.135 7.44303C13.995 7.38053 13.8741 7.33523 13.7735 7.30876L13.7226 7.50218C13.8086 7.52481 13.9185 7.56542 14.0534 7.62566L14.135 7.44303ZM14.5394 7.70222C14.4305 7.60659 14.296 7.52092 14.1378 7.44433L14.0506 7.62436C14.1967 7.69505 14.3151 7.7714 14.4075 7.85251L14.5394 7.70222ZM14.3735 6.74269V7.77736H14.5735V6.74269H14.3735ZM14.4661 6.84269H14.4735V6.64269H14.4661V6.84269ZM14.3772 6.81004L14.4214 6.83213L14.5108 6.65325L14.4666 6.63116L14.3772 6.81004ZM14.3145 6.71323C14.3145 6.7311 14.3191 6.76287 14.3457 6.78947C14.3723 6.81606 14.404 6.8206 14.4219 6.8206V6.6206C14.4349 6.6206 14.463 6.62391 14.4871 6.64805C14.5112 6.67219 14.5145 6.70027 14.5145 6.71323H14.3145ZM13.4652 6.57735C13.7823 6.59865 14.0849 6.6743 14.3734 6.8044L14.4556 6.62207C14.1453 6.48214 13.8194 6.40069 13.4786 6.3778L13.4652 6.57735ZM13.402 6.57021C13.4156 6.57021 13.4257 6.57075 13.4329 6.57151C13.4406 6.57232 13.4423 6.57312 13.4403 6.57245L13.5035 6.38271C13.4727 6.37242 13.4358 6.37021 13.402 6.37021V6.57021ZM13.3946 6.57021H13.402V6.37021H13.3946V6.57021ZM13.3357 6.57021H13.3946V6.37021H13.3357V6.57021ZM13.3283 6.57021H13.3357V6.37021H13.3283V6.57021ZM13.2584 6.57021H13.3283V6.37021H13.2584V6.57021ZM12.2128 6.78252C12.5303 6.64138 12.8784 6.57021 13.2584 6.57021V6.37021C12.8528 6.37021 12.4767 6.44633 12.1315 6.59976L12.2128 6.78252ZM11.3555 7.35835C11.6143 7.09953 11.8989 6.9086 12.2094 6.78394L12.1349 6.59834C11.7973 6.73388 11.4903 6.94063 11.214 7.21693L11.3555 7.35835ZM10.7726 8.21483C10.9124 7.89254 11.1066 7.60723 11.3555 7.35835L11.214 7.21693C10.9474 7.48356 10.739 7.78983 10.5891 8.13523L10.7726 8.21483ZM10.5597 9.13214C10.5835 8.79842 10.6549 8.49265 10.773 8.21405L10.5888 8.13602C10.4614 8.43673 10.3855 8.76429 10.3602 9.11789L10.5597 9.13214ZM10.56 9.26862V9.12502H10.36V9.26862H10.56ZM10.5744 9.54049C10.5646 9.41845 10.56 9.32836 10.56 9.26862H10.36C10.36 9.33653 10.3651 9.433 10.375 9.55643L10.5744 9.54049ZM10.7732 10.3163C10.6587 10.042 10.5931 9.78364 10.5744 9.54079L10.375 9.55613C10.3956 9.82387 10.4674 10.1031 10.5886 10.3934L10.7732 10.3163ZM11.3555 11.1752C11.1016 10.9214 10.9077 10.6351 10.773 10.3159L10.5888 10.3937C10.7339 10.7374 10.9426 11.0451 11.214 11.3166L11.3555 11.1752ZM11.951 11.6256C11.7239 11.5026 11.5261 11.3529 11.3569 11.1767L11.2126 11.3152C11.3969 11.5071 11.6114 11.6692 11.8557 11.8015L11.951 11.6256ZM12.2082 11.7565C12.1392 11.7298 12.0548 11.6873 11.9545 11.6276L11.8522 11.7995C11.9581 11.8625 12.0529 11.9109 12.136 11.943L12.2082 11.7565ZM12.2648 11.7784C12.2391 11.7686 12.2207 11.7615 12.2093 11.7569L12.135 11.9426C12.1481 11.9479 12.1677 11.9555 12.1936 11.9653L12.2648 11.7784ZM12.3234 11.8011C12.3103 11.7959 12.2907 11.7883 12.2648 11.7784L12.1936 11.9653C12.2193 11.9751 12.2377 11.9822 12.2491 11.9868L12.3234 11.8011ZM12.3662 11.8168C12.3475 11.8088 12.3282 11.8014 12.3105 11.7969L12.262 11.991C12.264 11.9915 12.2717 11.9939 12.2874 12.0006L12.3662 11.8168ZM12.3915 11.8264C12.3895 11.8259 12.3818 11.8235 12.3662 11.8168L12.2874 12.0006C12.3061 12.0086 12.3254 12.016 12.343 12.0204L12.3915 11.8264ZM12.3783 11.8234H12.3673V12.0234H12.3783V11.8234ZM13.2584 11.967C12.9519 11.967 12.67 11.9207 12.4118 11.8292L12.3449 12.0177C12.6267 12.1176 12.9315 12.167 13.2584 12.167V11.967ZM13.3283 11.967H13.2584V12.167H13.3283V11.967ZM13.3357 11.967H13.3283V12.167H13.3357V11.967ZM13.3946 11.967H13.3357V12.167H13.3946V11.967ZM13.402 11.967H13.3946V12.167H13.402V11.967ZM14.362 11.733C14.0671 11.8675 13.7454 11.9458 13.3959 11.9672L13.4081 12.1668C13.7803 12.144 14.1262 12.0604 14.445 11.915L14.362 11.733ZM14.4145 11.7166C14.3833 11.7166 14.3613 11.7307 14.3545 11.7353C14.345 11.7416 14.3376 11.7485 14.3328 11.7533L14.4742 11.8947C14.474 11.8949 14.4733 11.8956 14.472 11.8967C14.4708 11.8977 14.4686 11.8996 14.4654 11.9017C14.4624 11.9037 14.457 11.907 14.4496 11.9099C14.4424 11.9128 14.4302 11.9166 14.4145 11.9166V11.7166ZM14.4032 11.7127C14.3909 11.7177 14.3788 11.7227 14.3698 11.7272L14.4593 11.9061C14.4592 11.9061 14.4605 11.9055 14.4641 11.904C14.4674 11.9025 14.4718 11.9007 14.4775 11.8984L14.4032 11.7127ZM14.4214 11.7051C14.4215 11.7051 14.4201 11.7057 14.4166 11.7072C14.4133 11.7087 14.4088 11.7105 14.4032 11.7127L14.4775 11.8984C14.4897 11.8935 14.5018 11.8885 14.5108 11.884L14.4214 11.7051ZM14.4322 11.7018C14.4363 11.6976 14.4394 11.6954 14.4397 11.6952C14.4403 11.6948 14.4401 11.695 14.4386 11.6959C14.4355 11.6978 14.43 11.7008 14.4214 11.7051L14.5108 11.884C14.5219 11.8785 14.5323 11.8729 14.5415 11.8674C14.5489 11.863 14.562 11.8547 14.5736 11.8432L14.4322 11.7018ZM14.5176 11.6725H14.5029V11.8725H14.5176V11.6725ZM14.4617 11.687L14.4469 11.7017L14.5884 11.8432L14.6031 11.8284L14.4617 11.687ZM14.5022 11.6723C14.5079 11.6665 14.5147 11.6624 14.5212 11.6601C14.5273 11.6578 14.5315 11.6577 14.5324 11.6577V11.8577C14.5694 11.8577 14.6108 11.8465 14.6436 11.8137L14.5022 11.6723ZM14.5392 11.6462C14.5296 11.651 14.5153 11.6591 14.5022 11.6723L14.6436 11.8137C14.6391 11.8182 14.6352 11.821 14.6329 11.8225C14.6306 11.8241 14.6291 11.8249 14.6286 11.8251L14.5392 11.6462ZM14.5243 11.6576C14.5288 11.6531 14.5327 11.6502 14.5349 11.6487C14.5372 11.6472 14.5388 11.6464 14.5392 11.6462L14.6286 11.8251C14.6383 11.8203 14.6525 11.8121 14.6657 11.799L14.5243 11.6576ZM14.5818 11.626C14.5716 11.6294 14.5607 11.6336 14.5502 11.6388L14.6397 11.8177C14.639 11.818 14.6404 11.8173 14.645 11.8158L14.5818 11.626ZM14.5871 11.6241C14.5877 11.6238 14.5863 11.6245 14.5818 11.626L14.645 11.8158C14.6552 11.8124 14.666 11.8082 14.6765 11.803L14.5871 11.6241ZM14.5981 11.6167C14.5885 11.6215 14.5742 11.6297 14.5611 11.6428L14.7025 11.7843C14.698 11.7887 14.6941 11.7916 14.6919 11.7931C14.6896 11.7946 14.688 11.7954 14.6876 11.7956L14.5981 11.6167ZM14.5832 11.6281C14.5877 11.6236 14.5916 11.6208 14.5938 11.6193C14.5961 11.6177 14.5977 11.6169 14.5981 11.6167L14.6876 11.7956C14.6972 11.7908 14.7114 11.7827 14.7246 11.7695L14.5832 11.6281ZM14.6202 11.602C14.6106 11.6068 14.5963 11.6149 14.5832 11.6281L14.7246 11.7695C14.7201 11.774 14.7162 11.7769 14.7139 11.7783C14.7116 11.7799 14.7101 11.7807 14.7097 11.7809L14.6202 11.602ZM14.6052 11.6134C14.6098 11.6089 14.6137 11.606 14.6159 11.6046C14.6182 11.603 14.6198 11.6022 14.6202 11.602L14.7097 11.7809C14.7193 11.7761 14.7335 11.7679 14.7467 11.7548L14.6052 11.6134ZM14.6347 11.5876C14.6281 11.5942 14.6237 11.5983 14.6212 11.6005C14.6199 11.6017 14.6198 11.6017 14.6206 11.6011C14.621 11.6008 14.622 11.6 14.6235 11.599C14.625 11.5981 14.6276 11.5965 14.6313 11.5946L14.7207 11.7735C14.7358 11.766 14.7479 11.7554 14.7529 11.7511C14.7601 11.7447 14.768 11.7371 14.7761 11.729L14.6347 11.5876ZM14.6679 11.5729C14.6704 11.5704 14.6751 11.5665 14.6823 11.5632C14.6898 11.5599 14.6978 11.5583 14.7054 11.5583V11.7583C14.7478 11.7583 14.7834 11.7402 14.8093 11.7143L14.6679 11.5729ZM14.69 11.5581C14.6874 11.5607 14.6883 11.5593 14.6923 11.5567C14.6944 11.5553 14.6989 11.5525 14.7056 11.5498C14.712 11.5472 14.7235 11.5436 14.7386 11.5436V11.7436C14.7711 11.7436 14.7946 11.7289 14.8032 11.7231C14.8146 11.7155 14.8241 11.7068 14.8314 11.6996L14.69 11.5581ZM14.7194 11.5434C14.7205 11.5423 14.7346 11.5289 14.7607 11.5289V11.7289C14.8064 11.7289 14.8401 11.7056 14.8608 11.6848L14.7194 11.5434ZM14.8048 11.5068C14.7641 11.5068 14.7352 11.5276 14.7194 11.5434L14.8608 11.6848C14.8548 11.6908 14.8358 11.7068 14.8048 11.7068V11.5068ZM14.9428 11.3885L14.7476 11.5248L14.8621 11.6888L15.0572 11.5525L14.9428 11.3885ZM14.9 9.95717V11.4705H15.1V9.95717H14.9Z" fill="white"/>
<path fillRule="evenodd" clipRule="evenodd" d="M12 17.1944V21.7778C12 22.4528 12.5794 23 13.2941 23H21.7059C22.4206 23 23 22.4528 23 21.7778V13.2222C23 12.5472 22.4206 12 21.7059 12H16.8529" fill="#D8D8D8" fill-opacity="0.01"/>
<path d="M12 17.1944V21.7778C12 22.4528 12.5794 23 13.2941 23H21.7059C22.4206 23 23 22.4528 23 21.7778V13.2222C23 12.5472 22.4206 12 21.7059 12H16.8529" stroke="white" stroke-width="1.5"/>
<path d="M18.666 18.5002L21.2004 20.9551" stroke="white" stroke-linecap="round"/>
<path d="M18.3062 21.1816H21.3062V18.1816" stroke="white" stroke-linecap="round" stroke-linejoin="round"/>
</svg>
