<svg width="24" height="24" viewBox="0 0 24 24" fill="none" xmlns="http://www.w3.org/2000/svg">
<path d="M4 2V1.25C3.58579 1.25 3.25 1.58579 3.25 2H4ZM4 3H3.25C3.25 3.41421 3.58579 3.75 4 3.75V3ZM19 3V3.75C19.4142 3.75 19.75 3.41421 19.75 3H19ZM19 2H19.75C19.75 1.58579 19.4142 1.25 19 1.25V2ZM4 21V20.25C3.58579 20.25 3.25 20.5858 3.25 21H4ZM4 22H3.25C3.25 22.4142 3.58579 22.75 4 22.75V22ZM19 22V22.75C19.4142 22.75 19.75 22.4142 19.75 22H19ZM19 21H19.75C19.75 20.5858 19.4142 20.25 19 20.25V21ZM3 4H3.75C3.75 3.58579 3.41421 3.25 3 3.25V4ZM3 20V20.75C3.41421 20.75 3.75 20.4142 3.75 20H3ZM2 20H1.25C1.25 20.4142 1.58579 20.75 2 20.75V20ZM2 4V3.25C1.58579 3.25 1.25 3.58579 1.25 4H2ZM22 4H22.75C22.75 3.58579 22.4142 3.25 22 3.25V4ZM21 4V3.25C20.5858 3.25 20.25 3.58579 20.25 4H21ZM21 20H20.25C20.25 20.4142 20.5858 20.75 21 20.75V20ZM22 20V20.75C22.4142 20.75 22.75 20.4142 22.75 20H22ZM3.25 2V2.21429H4.75V2H3.25ZM3.25 2.78571V3H4.75V2.78571H3.25ZM4 3.75H4.10714V2.25H4V3.75ZM4.39286 3.75H4.5V2.25H4.39286V3.75ZM4.5 3.75H5.25V2.25H4.5V3.75ZM7.25 3.75H8.75V2.25H7.25V3.75ZM10.75 3.75H12.25V2.25H10.75V3.75ZM14.25 3.75H15.75V2.25H14.25V3.75ZM17.75 3.75H18.5V2.25H17.75V3.75ZM18.5 3.75H18.6071V2.25H18.5V3.75ZM18.8929 3.75H19V2.25H18.8929V3.75ZM19.75 3V2.78571H18.25V3H19.75ZM19.75 2.21429V2H18.25V2.21429H19.75ZM19 1.25H18.8929V2.75H19V1.25ZM18.6071 1.25H18.5V2.75H18.6071V1.25ZM18.5 1.25H17.75V2.75H18.5V1.25ZM15.75 1.25H14.25V2.75H15.75V1.25ZM12.25 1.25H10.75V2.75H12.25V1.25ZM8.75 1.25H7.25V2.75H8.75V1.25ZM5.25 1.25H4.5V2.75H5.25V1.25ZM4.5 1.25H4.39286V2.75H4.5V1.25ZM4.10714 1.25H4V2.75H4.10714V1.25ZM3.25 21V21.2143H4.75V21H3.25ZM3.25 21.7857V22H4.75V21.7857H3.25ZM4 22.75H4.10714V21.25H4V22.75ZM4.39286 22.75H4.5V21.25H4.39286V22.75ZM4.5 22.75H5.25V21.25H4.5V22.75ZM7.25 22.75H8.75V21.25H7.25V22.75ZM10.75 22.75H12.25V21.25H10.75V22.75ZM14.25 22.75H15.75V21.25H14.25V22.75ZM17.75 22.75H18.5V21.25H17.75V22.75ZM18.5 22.75H18.6071V21.25H18.5V22.75ZM18.8929 22.75H19V21.25H18.8929V22.75ZM19.75 22V21.7857H18.25V22H19.75ZM19.75 21.2143V21H18.25V21.2143H19.75ZM19 20.25H18.8929V21.75H19V20.25ZM18.6071 20.25H18.5V21.75H18.6071V20.25ZM18.5 20.25H17.75V21.75H18.5V20.25ZM15.75 20.25H14.25V21.75H15.75V20.25ZM12.25 20.25H10.75V21.75H12.25V20.25ZM8.75 20.25H7.25V21.75H8.75V20.25ZM5.25 20.25H4.5V21.75H5.25V20.25ZM4.5 20.25H4.39286V21.75H4.5V20.25ZM4.10714 20.25H4V21.75H4.10714V20.25ZM3.75 4.5V4.39286H2.25V4.5H3.75ZM3.75 4.10714V4H2.25V4.10714H3.75ZM3 3.25H2.78571V4.75H3V3.25ZM2.21429 3.25H2V4.75H2.21429V3.25ZM1.25 4V4.10714H2.75V4H1.25ZM1.25 4.39286V4.5H2.75V4.39286H1.25ZM1.25 4.5V5.30357H2.75V4.5H1.25ZM1.25 7.44643V9.05357H2.75V7.44643H1.25ZM1.25 11.1964V12.8036H2.75V11.1964H1.25ZM1.25 14.9464V16.5536H2.75V14.9464H1.25ZM1.25 18.6964V19.5H2.75V18.6964H1.25ZM1.25 19.5V19.6071H2.75V19.5H1.25ZM1.25 19.8929V20H2.75V19.8929H1.25ZM2 20.75H2.21429V19.25H2V20.75ZM2.78571 20.75H3V19.25H2.78571V20.75ZM3.75 20V19.8929H2.25V20H3.75ZM3.75 19.6071V19.5H2.25V19.6071H3.75ZM3.75 19.5V18.6964H2.25V19.5H3.75ZM3.75 16.5536V14.9464H2.25V16.5536H3.75ZM3.75 12.8036V11.1964H2.25V12.8036H3.75ZM3.75 9.05357V7.44643H2.25V9.05357H3.75ZM3.75 5.30357V4.5H2.25V5.30357H3.75ZM22 3.25H21.7857V4.75H22V3.25ZM21.2143 3.25H21V4.75H21.2143V3.25ZM20.25 4V4.10714H21.75V4H20.25ZM20.25 4.39286V4.5H21.75V4.39286H20.25ZM20.25 4.5V5.30357H21.75V4.5H20.25ZM20.25 7.44643V9.05357H21.75V7.44643H20.25ZM20.25 11.1964V12.8036H21.75V11.1964H20.25ZM20.25 14.9464V16.5536H21.75V14.9464H20.25ZM20.25 18.6964V19.5H21.75V18.6964H20.25ZM20.25 19.5V19.6071H21.75V19.5H20.25ZM20.25 19.8929V20H21.75V19.8929H20.25ZM21 20.75H21.2143V19.25H21V20.75ZM21.7857 20.75H22V19.25H21.7857V20.75ZM22.75 20V19.8929H21.25V20H22.75ZM22.75 19.6071V19.5H21.25V19.6071H22.75ZM22.75 19.5V18.6964H21.25V19.5H22.75ZM22.75 16.5536V14.9464H21.25V16.5536H22.75ZM22.75 12.8036V11.1964H21.25V12.8036H22.75ZM22.75 9.05357V7.44643H21.25V9.05357H22.75ZM22.75 5.30357V4.5H21.25V5.30357H22.75ZM22.75 4.5V4.39286H21.25V4.5H22.75ZM22.75 4.10714V4H21.25V4.10714H22.75Z" fill="#F9F9F9"/>
<mask id="path-2-inside-1_2_17467" fill="white">
<rect width="5" height="5" rx="1"/>
</mask>
<rect width="5" height="5" rx="1" fill="#D8D8D8" fill-opacity="0.01" stroke="#F9F9F9" stroke-width="3" mask="url(#path-2-inside-1_2_17467)"/>
<mask id="path-3-inside-2_2_17467" fill="white">
<rect y="19" width="5" height="5" rx="1"/>
</mask>
<rect y="19" width="5" height="5" rx="1" fill="#D8D8D8" fill-opacity="0.01" stroke="#F9F9F9" stroke-width="3" mask="url(#path-3-inside-2_2_17467)"/>
<mask id="path-4-inside-3_2_17467" fill="white">
<rect x="19" width="5" height="5" rx="1"/>
</mask>
<rect x="19" width="5" height="5" rx="1" fill="#D8D8D8" fill-opacity="0.01" stroke="#F9F9F9" stroke-width="3" mask="url(#path-4-inside-3_2_17467)"/>
<mask id="path-5-inside-4_2_17467" fill="white">
<rect x="19" y="19" width="5" height="5" rx="1"/>
</mask>
<rect x="19" y="19" width="5" height="5" rx="1" fill="#D8D8D8" fill-opacity="0.01" stroke="#F9F9F9" stroke-width="3" mask="url(#path-5-inside-4_2_17467)"/>
<rect x="6" y="6" width="12" height="12" rx="2" fill="#D8D8D8" fill-opacity="0.01" stroke="white" stroke-width="1.5"/>
<path d="M15.7163 13.7302L14.7395 12.0385C14.5168 11.6528 13.9601 11.6528 13.7374 12.0385L12.812 13.6416L11.0914 10.6613C10.8687 10.2757 10.3122 10.2757 10.0896 10.6613L8.31762 13.7305C8.09497 14.1161 8.37328 14.5981 8.81858 14.5981H15.2153C15.6606 14.598 15.9389 14.116 15.7163 13.7302Z" fill="white"/>
<path d="M13.1852 10.019C13.3032 10.279 13.5509 10.4563 13.835 10.4841C14.1191 10.5119 14.3965 10.3861 14.5627 10.1539C14.7289 9.92174 14.7585 9.61856 14.6405 9.35859C14.5226 9.0986 14.2749 8.92129 13.9908 8.89346C13.7066 8.86563 13.4292 8.99151 13.2631 9.22367C13.0969 9.45583 13.0672 9.759 13.1852 10.019Z" fill="white"/>
</svg>
