<svg width="24" height="24" viewBox="0 0 24 24" fill="none" xmlns="http://www.w3.org/2000/svg">
<rect x="1" y="7" width="16" height="16" rx="2" fill="#D8D8D8" fill-opacity="0.01" stroke="white" stroke-width="1.5"/>
<path fill-rule="evenodd" clip-rule="evenodd" d="M12 6.80556V2.22222C12 1.54721 12.5794 1 13.2941 1H21.7059C22.4206 1 23 1.54721 23 2.22222V10.7778C23 11.4528 22.4206 12 21.7059 12H16.8529" fill="#D8D8D8" fill-opacity="0.01"/>
<path d="M12 6.80556V2.22222C12 1.54721 12.5794 1 13.2941 1H21.7059C22.4206 1 23 1.54721 23 2.22222V10.7778C23 11.4528 22.4206 12 21.7059 12H16.8529" stroke="white" stroke-width="1.5"/>
<path d="M20.9463 3.50018L18.4119 5.95508" stroke="white" stroke-linecap="round"/>
<path d="M21.3062 6.18164H18.3062V3.18164" stroke="white" stroke-linecap="round" stroke-linejoin="round"/>
<path fill-rule="evenodd" clip-rule="evenodd" d="M5.3455 12.4702V16.1671C5.3455 16.7734 5.1344 17.2557 4.71218 17.6141C4.35624 17.9161 3.90334 18.067 3.35348 18.067C3.23075 18.067 3.11292 18.0597 3 18.0449V17.1465C3.11292 17.176 3.23075 17.1907 3.35348 17.1907C3.68242 17.1907 3.94876 17.1084 4.1525 16.944C4.3587 16.7672 4.4618 16.5083 4.4618 16.1671V12.4702H5.3455ZM7.19024 12.4702H6.45382V18.067H7.32648V16.1744H8.11077C8.71709 16.1744 9.18226 15.9879 9.50629 15.6147C9.80822 15.2907 9.95919 14.8587 9.95919 14.3186C9.95919 13.786 9.80822 13.3539 9.50629 13.0225C9.1749 12.6543 8.70973 12.4702 8.11077 12.4702H7.19024ZM9.1749 14.3186C9.1749 14.6476 9.09144 14.9041 8.92452 15.0882C8.74287 15.2846 8.47162 15.3828 8.11077 15.3828H7.32648V13.2545H8.11077C8.46671 13.2545 8.73796 13.3551 8.92452 13.5564C9.09144 13.7405 9.1749 13.9946 9.1749 14.3186ZM15 15.9572V15.1655H13.0706V15.9572H14.1273V16.9882H14.12C14.0218 17.0397 13.9187 17.0802 13.8107 17.1097L13.7959 17.117C13.7788 17.117 13.7677 17.1195 13.7628 17.1244C13.753 17.1244 13.7456 17.1269 13.7407 17.1318H13.7186C13.7137 17.1367 13.7039 17.1391 13.6892 17.1391C13.6843 17.144 13.6793 17.1465 13.6744 17.1465C13.6573 17.149 13.6296 17.1539 13.5916 17.1612C13.5535 17.1686 13.5259 17.1735 13.5087 17.176H13.494H13.4609C13.4511 17.176 13.4461 17.1784 13.4461 17.1833H13.4093H13.3872H13.3651H13.3357C13.3308 17.1882 13.3222 17.1907 13.3099 17.1907H13.2584C13.0031 17.1907 12.7588 17.1422 12.5256 17.0452C12.2924 16.9483 12.085 16.809 11.9033 16.6273C11.6677 16.3917 11.5032 16.1131 11.4099 15.7915C11.3731 15.6565 11.351 15.5153 11.3437 15.368C11.3388 15.3435 11.3363 15.3103 11.3363 15.2686C11.3363 15.2244 11.3388 15.1901 11.3437 15.1655V15.0808C11.3486 15.0268 11.3608 14.952 11.3805 14.8562C11.3805 14.8489 11.3829 14.8427 11.3878 14.8378C11.432 14.6365 11.5106 14.4463 11.6235 14.2671C11.6235 14.2573 11.6284 14.2474 11.6382 14.2376C11.6431 14.2303 11.6505 14.2186 11.6603 14.2026C11.6701 14.1867 11.6775 14.175 11.6824 14.1677L11.6971 14.1529C11.734 14.0965 11.7671 14.0511 11.7966 14.0167C11.8015 14.0167 11.8039 14.0142 11.8039 14.0093C11.8162 13.9946 11.8346 13.9762 11.8592 13.9541C11.8837 13.932 11.8984 13.9185 11.9033 13.9136C12.0064 13.8031 12.1169 13.7123 12.2347 13.6411C12.2544 13.6313 12.2666 13.6239 12.2716 13.619C12.5686 13.4374 12.8975 13.3466 13.2584 13.3466H13.3099H13.3283H13.3578H13.3799C13.3823 13.3466 13.386 13.3478 13.3909 13.3502C13.3958 13.3527 13.3995 13.3539 13.402 13.3539H13.4461H13.4719C13.4768 13.3588 13.4867 13.3613 13.5014 13.3613H13.5161C13.5186 13.3613 13.5235 13.3625 13.5308 13.365C13.5382 13.3674 13.5431 13.3686 13.5456 13.3686H13.5603C13.5701 13.3711 13.5867 13.3736 13.61 13.376C13.6333 13.3785 13.6499 13.3809 13.6597 13.3834C13.6646 13.3883 13.6695 13.3907 13.6744 13.3907C13.6892 13.3907 13.699 13.3932 13.7039 13.3981H13.726C13.7309 13.403 13.7383 13.4055 13.7481 13.4055C13.8414 13.43 13.9567 13.473 14.0942 13.5343C14.2464 13.608 14.3728 13.689 14.4735 13.7774V12.7427H14.4661L14.4219 12.7206C14.417 12.7206 14.4145 12.7181 14.4145 12.7132C14.1151 12.5782 13.8009 12.4997 13.4719 12.4776C13.4572 12.4727 13.4339 12.4702 13.402 12.4702H13.3946H13.3357H13.3283H13.2584C12.8656 12.4702 12.5035 12.5439 12.1721 12.6911C11.8481 12.8212 11.5523 13.0201 11.2847 13.2876C11.027 13.5454 10.8257 13.8412 10.6809 14.175C10.5581 14.4647 10.4845 14.7814 10.46 15.125V15.2686C10.46 15.3324 10.4649 15.4257 10.4747 15.5485C10.4943 15.8038 10.5631 16.0725 10.6809 16.3548C10.8208 16.6862 11.0221 16.9833 11.2847 17.2459C11.4615 17.43 11.6677 17.5859 11.9033 17.7135C12.0064 17.7749 12.096 17.8203 12.1721 17.8498C12.1844 17.8547 12.2034 17.8621 12.2292 17.8719C12.255 17.8817 12.274 17.8891 12.2863 17.894C12.2961 17.8964 12.3096 17.9013 12.3268 17.9087C12.344 17.9161 12.3575 17.921 12.3673 17.9234H12.3783C12.6484 18.0192 12.9417 18.067 13.2584 18.067H13.3283H13.3357H13.3946H13.402C13.7628 18.0449 14.0967 17.9639 14.4035 17.824C14.4084 17.8191 14.4121 17.8166 14.4145 17.8166C14.4195 17.8142 14.428 17.8105 14.4403 17.8056C14.4526 17.8007 14.4612 17.797 14.4661 17.7945C14.4857 17.7847 14.498 17.7774 14.5029 17.7725H14.5176L14.5324 17.7577C14.5496 17.7577 14.5631 17.7528 14.5729 17.743C14.5753 17.7405 14.579 17.7381 14.5839 17.7356C14.5888 17.7332 14.5925 17.7307 14.595 17.7283C14.5999 17.7258 14.606 17.7234 14.6134 17.7209C14.6207 17.7185 14.6269 17.716 14.6318 17.7135C14.6342 17.7111 14.6379 17.7086 14.6428 17.7062C14.6477 17.7037 14.6514 17.7013 14.6539 17.6988C14.6563 17.6964 14.66 17.6939 14.6649 17.6914C14.6698 17.689 14.6735 17.6865 14.676 17.6841C14.6809 17.6816 14.6907 17.673 14.7054 17.6583C14.7177 17.6583 14.7288 17.6534 14.7386 17.6436C14.7435 17.6436 14.7508 17.6387 14.7607 17.6289C14.7705 17.6289 14.7803 17.6239 14.7901 17.6141C14.795 17.6092 14.7999 17.6068 14.8048 17.6068L15 17.4705V15.9572Z" fill="#F9F9F9"/>
<path d="M5.3455 12.4702H5.4455V12.3702H5.3455V12.4702ZM4.71218 17.6141L4.77687 17.6904L4.7769 17.6904L4.71218 17.6141ZM3 18.0449H2.9V18.1327L2.98707 18.1441L3 18.0449ZM3 17.1465L3.02524 17.0497L2.9 17.0171V17.1465H3ZM4.1525 16.944L4.21534 17.0218L4.21758 17.0199L4.1525 16.944ZM4.4618 12.4702V12.3702H4.3618V12.4702H4.4618ZM6.45382 12.4702V12.3702H6.35382V12.4702H6.45382ZM6.45382 18.067H6.35382V18.167H6.45382V18.067ZM7.32648 18.067V18.167H7.42648V18.067H7.32648ZM7.32648 16.1744V16.0744H7.22648V16.1744H7.32648ZM9.50629 15.6147L9.43308 15.5465L9.43079 15.5492L9.50629 15.6147ZM9.50629 13.0225L9.43196 13.0894L9.43237 13.0899L9.50629 13.0225ZM8.92452 15.0882L8.99793 15.1561L8.9986 15.1554L8.92452 15.0882ZM7.32648 15.3828H7.22648V15.4828H7.32648V15.3828ZM7.32648 13.2545V13.1545H7.22648V13.2545H7.32648ZM8.92452 13.5564L8.9986 13.4893L8.99786 13.4885L8.92452 13.5564ZM15 15.1655H15.1V15.0655H15V15.1655ZM13.0706 15.1655V15.0655H12.9706V15.1655H13.0706ZM13.0706 15.9572H12.9706V16.0572H13.0706V15.9572ZM14.1273 15.9572H14.2273V15.8572H14.1273V15.9572ZM14.1273 16.9882V17.0882H14.2273V16.9882H14.1273ZM14.12 16.9882V16.8882H14.0953L14.0735 16.8996L14.12 16.9882ZM13.8107 17.1097L13.7844 17.0132L13.7748 17.0158L13.766 17.0202L13.8107 17.1097ZM13.7959 17.117V17.217H13.8196L13.8407 17.2065L13.7959 17.117ZM13.7628 17.1244V17.2244H13.8042L13.8335 17.1951L13.7628 17.1244ZM13.7407 17.1318V17.2318H13.7821L13.8114 17.2025L13.7407 17.1318ZM13.7186 17.1318V17.0318H13.6772L13.6479 17.0611L13.7186 17.1318ZM13.6892 17.1391V17.0391H13.6477L13.6185 17.0684L13.6892 17.1391ZM13.6744 17.1465V17.0465H13.6673L13.6603 17.0475L13.6744 17.1465ZM13.5916 17.1612L13.6106 17.2594H13.6106L13.5916 17.1612ZM13.5087 17.176V17.276H13.5159L13.5229 17.2749L13.5087 17.176ZM13.4461 17.1833V17.2833H13.5461V17.1833H13.4461ZM13.3357 17.1833V17.0833H13.2943L13.265 17.1126L13.3357 17.1833ZM11.9033 16.6273L11.9741 16.5566H11.9741L11.9033 16.6273ZM11.4099 15.7915L11.3135 15.8178L11.3139 15.8193L11.4099 15.7915ZM11.3437 15.368L11.4435 15.363L11.4432 15.3557L11.4417 15.3484L11.3437 15.368ZM11.3437 15.1655L11.4417 15.1851L11.4437 15.1754V15.1655H11.3437ZM11.3437 15.0808L11.2437 15.0717V15.0808H11.3437ZM11.3805 14.8562L11.4784 14.8763L11.4805 14.8664V14.8562H11.3805ZM11.3878 14.8378L11.4586 14.9085L11.4792 14.8878L11.4855 14.8593L11.3878 14.8378ZM11.6235 14.2671L11.7081 14.3204L11.7235 14.296V14.2671H11.6235ZM11.6382 14.2376L11.7089 14.3083L11.7159 14.3013L11.7214 14.2931L11.6382 14.2376ZM11.6824 14.1677L11.6117 14.097L11.6047 14.104L11.5992 14.1122L11.6824 14.1677ZM11.6971 14.1529L11.7679 14.2237L11.7752 14.2163L11.7809 14.2076L11.6971 14.1529ZM11.7966 14.0167V13.9167H11.7506L11.7206 13.9516L11.7966 14.0167ZM11.8039 14.0093L11.7271 13.9453L11.7039 13.9731V14.0093H11.8039ZM11.9033 13.9136L11.9741 13.9844L11.9765 13.9818L11.9033 13.9136ZM12.2347 13.6411L12.1899 13.5514L12.183 13.5555L12.2347 13.6411ZM12.2716 13.619L12.2194 13.5337L12.2092 13.5399L12.2008 13.5483L12.2716 13.619ZM13.4719 13.3539L13.5426 13.2832L13.5133 13.2539H13.4719V13.3539ZM13.5603 13.3686L13.5846 13.2716L13.5726 13.2686H13.5603V13.3686ZM13.6597 13.3834L13.7304 13.3127L13.7108 13.2931L13.684 13.2864L13.6597 13.3834ZM13.7039 13.3981L13.6332 13.4688L13.6625 13.4981H13.7039V13.3981ZM13.726 13.3981L13.7967 13.3274L13.7674 13.2981H13.726V13.3981ZM13.7481 13.4055L13.7735 13.3088L13.761 13.3055H13.7481V13.4055ZM14.0942 13.5343L14.1378 13.4443L14.135 13.443L14.0942 13.5343ZM14.4735 13.7774L14.4075 13.8525L14.5735 13.9982V13.7774H14.4735ZM14.4735 12.7427H14.5735V12.6427H14.4735V12.7427ZM14.4661 12.7427L14.4214 12.8321L14.4425 12.8427H14.4661V12.7427ZM14.4219 12.7206L14.4666 12.6312L14.4455 12.6206H14.4219V12.7206ZM14.4145 12.7132H14.5145V12.6486L14.4556 12.6221L14.4145 12.7132ZM13.4719 12.4776L13.4403 12.5724L13.4524 12.5765L13.4652 12.5774L13.4719 12.4776ZM12.1721 12.6911L12.2094 12.784L12.2128 12.7825L12.1721 12.6911ZM11.2847 13.2876L11.214 13.2169L11.2847 13.2876ZM10.6809 14.175L10.5891 14.1352L10.5888 14.136L10.6809 14.175ZM10.46 15.125L10.36 15.1179V15.125H10.46ZM10.4747 15.5485L10.5744 15.5408L10.5744 15.5405L10.4747 15.5485ZM10.6809 16.3548L10.5886 16.3934L10.5888 16.3937L10.6809 16.3548ZM11.2847 17.2459L11.3569 17.1766L11.3555 17.1752L11.2847 17.2459ZM11.9033 17.7135L11.9545 17.6275L11.951 17.6256L11.9033 17.7135ZM12.1721 17.8498L12.2093 17.7569L12.2082 17.7565L12.1721 17.8498ZM12.2292 17.8719L12.2648 17.7784L12.2648 17.7784L12.2292 17.8719ZM12.2863 17.894L12.2488 17.9877L12.262 17.991L12.2863 17.894ZM12.3268 17.9087L12.3662 17.8168L12.3662 17.8168L12.3268 17.9087ZM12.3673 17.9234L12.343 18.0204L12.355 18.0234H12.3673V17.9234ZM12.3783 17.9234L12.4118 17.8292L12.3955 17.8234H12.3783V17.9234ZM13.402 18.067V18.1672L13.4081 18.1668L13.402 18.067ZM14.4035 17.824L14.445 17.915L14.4614 17.9075L14.4742 17.8947L14.4035 17.824ZM14.4145 17.8166V17.9166H14.4382L14.4593 17.9061L14.4145 17.8166ZM14.5029 17.7725V17.6725H14.4615L14.4322 17.7018L14.5029 17.7725ZM14.5176 17.7725V17.8725H14.5591L14.5884 17.8432L14.5176 17.7725ZM14.5324 17.7577V17.6577H14.491L14.4617 17.687L14.5324 17.7577ZM14.595 17.7283L14.5502 17.6388L14.5357 17.6461L14.5243 17.6576L14.595 17.7283ZM14.6318 17.7135L14.6765 17.803L14.691 17.7957L14.7025 17.7843L14.6318 17.7135ZM14.6428 17.7062L14.6876 17.7956L14.6876 17.7956L14.6428 17.7062ZM14.6539 17.6988L14.5832 17.6281L14.5832 17.6281L14.6539 17.6988ZM14.6649 17.6914L14.7097 17.7809L14.7097 17.7809L14.6649 17.6914ZM14.676 17.6841L14.6313 17.5946L14.6167 17.6019L14.6052 17.6134L14.676 17.6841ZM14.7054 17.6583V17.5583H14.664L14.6347 17.5876L14.7054 17.6583ZM14.7386 17.6436V17.5436H14.6971L14.6679 17.5729L14.7386 17.6436ZM14.7607 17.6289V17.5289H14.7192L14.69 17.5581L14.7607 17.6289ZM14.7901 17.6141L14.7194 17.5434L14.7194 17.5434L14.7901 17.6141ZM14.8048 17.6068V17.7068H14.8363L14.8621 17.6888L14.8048 17.6068ZM15 17.4705L15.0572 17.5525L15.1 17.5227V17.4705H15ZM5.4455 16.1671V12.4702H5.2455V16.1671H5.4455ZM4.7769 17.6904C5.22379 17.311 5.4455 16.7996 5.4455 16.1671H5.2455C5.2455 16.7472 5.04501 17.2004 4.64747 17.5379L4.7769 17.6904ZM3.35348 18.167C3.92261 18.167 4.39975 18.0103 4.77687 17.6904L4.64749 17.5379C4.31274 17.8218 3.88408 17.967 3.35348 17.967V18.167ZM2.98707 18.1441C3.10459 18.1594 3.22675 18.167 3.35348 18.167V17.967C3.23474 17.967 3.12125 17.9599 3.01293 17.9458L2.98707 18.1441ZM2.9 17.1465V18.0449H3.1V17.1465H2.9ZM3.35348 17.0907C3.23882 17.0907 3.1295 17.0769 3.02524 17.0497L2.97476 17.2433C3.09633 17.275 3.22267 17.2907 3.35348 17.2907V17.0907ZM4.08969 16.8662C3.90789 17.0129 3.66555 17.0907 3.35348 17.0907V17.2907C3.69929 17.2907 3.98962 17.204 4.21531 17.0218L4.08969 16.8662ZM4.3618 16.1671C4.3618 16.4872 4.26597 16.715 4.08742 16.8681L4.21758 17.0199C4.45143 16.8195 4.5618 16.5294 4.5618 16.1671H4.3618ZM4.3618 12.4702V16.1671H4.5618V12.4702H4.3618ZM5.3455 12.3702H4.4618V12.5702H5.3455V12.3702ZM6.45382 12.5702H7.19024V12.3702H6.45382V12.5702ZM6.55382 18.067V12.4702H6.35382V18.067H6.55382ZM7.32648 17.967H6.45382V18.167H7.32648V17.967ZM7.22648 16.1744V18.067H7.42648V16.1744H7.22648ZM8.11077 16.0744H7.32648V16.2744H8.11077V16.0744ZM9.43079 15.5492C9.12999 15.8955 8.69527 16.0744 8.11077 16.0744V16.2744C8.73891 16.2744 9.23454 16.0802 9.58179 15.6803L9.43079 15.5492ZM9.85919 14.3186C9.85919 14.8392 9.7142 15.2449 9.43313 15.5466L9.57945 15.6829C9.90224 15.3365 10.0592 14.8781 10.0592 14.3186H9.85919ZM9.43237 13.0899C9.71446 13.3995 9.85919 13.8059 9.85919 14.3186H10.0592C10.0592 13.766 9.90199 13.3084 9.58021 12.9552L9.43237 13.0899ZM8.11077 12.5702C8.68782 12.5702 9.12345 12.7466 9.43196 13.0894L9.58062 12.9556C9.22635 12.562 8.73164 12.3702 8.11077 12.3702V12.5702ZM7.19024 12.5702H8.11077V12.3702H7.19024V12.5702ZM8.9986 15.1554C9.18699 14.9476 9.2749 14.6642 9.2749 14.3186H9.0749C9.0749 14.6309 8.99588 14.8606 8.85043 15.021L8.9986 15.1554ZM8.11077 15.4828C8.48936 15.4828 8.79142 15.3794 8.99793 15.1561L8.85111 15.0203C8.69431 15.1898 8.45387 15.2828 8.11077 15.2828V15.4828ZM7.32648 15.4828H8.11077V15.2828H7.32648V15.4828ZM7.22648 13.2545V15.3828H7.42648V13.2545H7.22648ZM8.11077 13.1545H7.32648V13.3545H8.11077V13.1545ZM8.99786 13.4885C8.78716 13.2611 8.48582 13.1545 8.11077 13.1545V13.3545C8.4476 13.3545 8.68875 13.4492 8.85117 13.6244L8.99786 13.4885ZM9.2749 14.3186C9.2749 13.9775 9.18676 13.6968 8.9986 13.4893L8.85043 13.6236C8.99612 13.7843 9.0749 14.0117 9.0749 14.3186H9.2749ZM14.9 15.1655V15.9572H15.1V15.1655H14.9ZM13.0706 15.2655H15V15.0655H13.0706V15.2655ZM13.1706 15.9572V15.1655H12.9706V15.9572H13.1706ZM14.1273 15.8572H13.0706V16.0572H14.1273V15.8572ZM14.2273 16.9882V15.9572H14.0273V16.9882H14.2273ZM14.12 17.0882H14.1273V16.8882H14.12V17.0882ZM13.837 17.2062C13.9519 17.1748 14.0618 17.1317 14.1665 17.0767L14.0735 16.8996C13.9818 16.9478 13.8855 16.9856 13.7844 17.0132L13.837 17.2062ZM13.8407 17.2065L13.8554 17.1991L13.766 17.0202L13.7512 17.0276L13.8407 17.2065ZM13.8335 17.1951C13.8245 17.2041 13.8155 17.2092 13.8095 17.212C13.8035 17.2148 13.7988 17.216 13.7965 17.2165C13.7922 17.2174 13.7913 17.217 13.7959 17.217V17.017C13.7834 17.017 13.7684 17.0179 13.7531 17.0213C13.7396 17.0243 13.714 17.0318 13.6921 17.0537L13.8335 17.1951ZM13.8114 17.2025C13.791 17.2229 13.7684 17.2244 13.7628 17.2244V17.0244C13.7376 17.0244 13.7003 17.0308 13.67 17.0611L13.8114 17.2025ZM13.7186 17.2318H13.7407V17.0318H13.7186V17.2318ZM13.6892 17.2391C13.7014 17.2391 13.7163 17.2382 13.7318 17.2343C13.7468 17.2306 13.7695 17.2223 13.7893 17.2025L13.6479 17.0611C13.6628 17.0461 13.6782 17.0416 13.6833 17.0403C13.689 17.0388 13.6917 17.0391 13.6892 17.0391V17.2391ZM13.6744 17.2465C13.7152 17.2465 13.7441 17.2257 13.7599 17.2098L13.6185 17.0684C13.6244 17.0624 13.6435 17.0465 13.6744 17.0465V17.2465ZM13.6106 17.2594C13.6485 17.2521 13.674 17.2476 13.6886 17.2455L13.6603 17.0475C13.6405 17.0503 13.6108 17.0557 13.5726 17.063L13.6106 17.2594ZM13.5229 17.2749C13.5427 17.2721 13.5724 17.2668 13.6106 17.2594L13.5726 17.063C13.5347 17.0704 13.5092 17.0749 13.4946 17.077L13.5229 17.2749ZM13.494 17.276H13.5087V17.076H13.494V17.276ZM13.4609 17.276H13.494V17.076H13.4609V17.276ZM13.5461 17.1833C13.5461 17.1996 13.5418 17.2183 13.5303 17.2356C13.5192 17.2522 13.5052 17.2619 13.4946 17.2672C13.4761 17.2765 13.4611 17.276 13.4609 17.276V17.076C13.4509 17.076 13.4285 17.0767 13.4051 17.0884C13.392 17.0949 13.3762 17.1061 13.3639 17.1246C13.3511 17.1437 13.3461 17.1646 13.3461 17.1833H13.5461ZM13.4093 17.2833H13.4461V17.0833H13.4093V17.2833ZM13.3872 17.2833H13.4093V17.0833H13.3872V17.2833ZM13.3651 17.2833H13.3872V17.0833H13.3651V17.2833ZM13.3357 17.2833H13.3651V17.0833H13.3357V17.2833ZM13.3099 17.2907C13.33 17.2907 13.3727 17.2877 13.4064 17.254L13.265 17.1126C13.2775 17.1001 13.2906 17.0948 13.2981 17.0927C13.3019 17.0916 13.3049 17.0911 13.3067 17.0909C13.3086 17.0907 13.3097 17.0907 13.3099 17.0907V17.2907ZM13.2584 17.2907H13.3099V17.0907H13.2584V17.2907ZM12.4872 17.1376C12.7327 17.2397 12.99 17.2907 13.2584 17.2907V17.0907C13.0161 17.0907 12.7849 17.0447 12.564 16.9529L12.4872 17.1376ZM11.8326 16.698C12.0234 16.8888 12.2417 17.0355 12.4872 17.1376L12.564 16.9529C12.3431 16.8611 12.1466 16.7292 11.9741 16.5566L11.8326 16.698ZM11.3139 15.8193C11.4119 16.157 11.585 16.4504 11.8326 16.698L11.9741 16.5566C11.7504 16.3329 11.5946 16.0691 11.506 15.7636L11.3139 15.8193ZM11.2438 15.373C11.2515 15.5271 11.2746 15.6755 11.3135 15.8178L11.5064 15.7652C11.4716 15.6375 11.4506 15.5035 11.4435 15.363L11.2438 15.373ZM11.2363 15.2686C11.2363 15.3132 11.2388 15.3538 11.2456 15.3876L11.4417 15.3484C11.4387 15.3332 11.4363 15.3075 11.4363 15.2686H11.2363ZM11.2456 15.1459C11.2388 15.18 11.2363 15.222 11.2363 15.2686H11.4363C11.4363 15.2268 11.4387 15.2001 11.4417 15.1851L11.2456 15.1459ZM11.2437 15.0808V15.1655H11.4437V15.0808H11.2437ZM11.2825 14.8361C11.2626 14.9331 11.2495 15.0122 11.2441 15.0718L11.4433 15.0899C11.4477 15.0414 11.4591 14.9708 11.4784 14.8763L11.2825 14.8361ZM11.3171 14.7671C11.2922 14.792 11.2805 14.8241 11.2805 14.8562H11.4805C11.4805 14.8638 11.4792 14.8732 11.4752 14.8832C11.4711 14.8934 11.4652 14.9019 11.4586 14.9085L11.3171 14.7671ZM11.5389 14.2138C11.42 14.4025 11.3369 14.6035 11.2902 14.8164L11.4855 14.8593C11.5272 14.6696 11.6012 14.4901 11.7081 14.3204L11.5389 14.2138ZM11.5675 14.1669C11.5468 14.1876 11.5235 14.2214 11.5235 14.2671H11.7235C11.7235 14.2931 11.71 14.3073 11.7089 14.3083L11.5675 14.1669ZM11.5752 14.1502C11.5654 14.166 11.5589 14.1764 11.555 14.1822L11.7214 14.2931C11.7274 14.2841 11.7356 14.2712 11.7455 14.2551L11.5752 14.1502ZM11.5992 14.1122C11.5932 14.1212 11.5851 14.1341 11.5752 14.1502L11.7455 14.2551C11.7552 14.2393 11.7618 14.2289 11.7656 14.2231L11.5992 14.1122ZM11.6264 14.0822L11.6117 14.097L11.7531 14.2384L11.7679 14.2237L11.6264 14.0822ZM11.7206 13.9516C11.6873 13.9905 11.6516 14.0398 11.6134 14.0983L11.7809 14.2076C11.8164 14.1532 11.8469 14.1117 11.8725 14.0818L11.7206 13.9516ZM11.7039 14.0093C11.7039 13.9964 11.7072 13.9683 11.7314 13.9441C11.7555 13.92 11.7836 13.9167 11.7966 13.9167V14.1167C11.8144 14.1167 11.8462 14.1122 11.8728 14.0856C11.8994 14.059 11.9039 14.0272 11.9039 14.0093H11.7039ZM11.7923 13.8798C11.7663 13.9031 11.7439 13.9252 11.7271 13.9453L11.8807 14.0734C11.8886 14.064 11.9029 14.0493 11.9261 14.0284L11.7923 13.8798ZM11.8326 13.8429C11.8327 13.8428 11.8325 13.8431 11.8319 13.8436C11.8313 13.8442 11.8305 13.845 11.8294 13.8459C11.8273 13.8479 11.8246 13.8505 11.821 13.8537C11.814 13.8602 11.8044 13.8688 11.7923 13.8798L11.9261 14.0284C11.9496 14.0072 11.9668 13.9916 11.9741 13.9843L11.8326 13.8429ZM12.183 13.5555C12.0566 13.6319 11.939 13.7288 11.8302 13.8454L11.9765 13.9818C12.0739 13.8775 12.1772 13.7927 12.2864 13.7267L12.183 13.5555ZM12.2008 13.5483C12.205 13.5442 12.2081 13.542 12.2084 13.5418C12.209 13.5414 12.2087 13.5416 12.2072 13.5425C12.2041 13.5444 12.1986 13.5474 12.19 13.5517L12.2795 13.7306C12.2905 13.725 12.301 13.7195 12.3101 13.714C12.3175 13.7096 12.3307 13.7013 12.3423 13.6897L12.2008 13.5483ZM13.2584 13.2466C12.8798 13.2466 12.5327 13.3421 12.2194 13.5337L12.3237 13.7043C12.6045 13.5327 12.9152 13.4466 13.2584 13.4466V13.2466ZM13.3099 13.2466H13.2584V13.4466H13.3099V13.2466ZM13.3283 13.2466H13.3099V13.4466H13.3283V13.2466ZM13.3578 13.2466H13.3283V13.4466H13.3578V13.2466ZM13.3799 13.2466H13.3578V13.4466H13.3799V13.2466ZM13.4356 13.2608C13.4299 13.258 13.4078 13.2466 13.3799 13.2466V13.4466C13.3724 13.4466 13.3664 13.4457 13.3623 13.4448C13.3582 13.444 13.355 13.4431 13.3529 13.4423C13.3488 13.441 13.3464 13.4398 13.3462 13.4397L13.4356 13.2608ZM13.402 13.2539C13.4094 13.2539 13.4155 13.2548 13.4195 13.2556C13.4236 13.2565 13.4269 13.2574 13.429 13.2581C13.433 13.2595 13.4354 13.2607 13.4356 13.2608L13.3462 13.4397C13.3519 13.4425 13.374 13.4539 13.402 13.4539V13.2539ZM13.4461 13.2539H13.402V13.4539H13.4461V13.2539ZM13.4719 13.2539H13.4461V13.4539H13.4719V13.2539ZM13.5014 13.2613C13.4988 13.2613 13.5015 13.261 13.5072 13.2624C13.5123 13.2637 13.5277 13.2683 13.5426 13.2832L13.4012 13.4246C13.4211 13.4445 13.4438 13.4527 13.4587 13.4565C13.4743 13.4603 13.4892 13.4613 13.5014 13.4613V13.2613ZM13.5161 13.2613H13.5014V13.4613H13.5161V13.2613ZM13.5625 13.2701C13.5575 13.2684 13.5518 13.2667 13.5459 13.2652C13.542 13.2642 13.5302 13.2613 13.5161 13.2613V13.4613C13.5092 13.4613 13.504 13.4605 13.502 13.4602C13.4995 13.4597 13.4979 13.4593 13.4974 13.4592C13.4964 13.459 13.4968 13.459 13.4992 13.4598L13.5625 13.2701ZM13.5456 13.2686C13.5525 13.2686 13.5577 13.2694 13.5597 13.2698C13.5621 13.2702 13.5638 13.2706 13.5643 13.2707C13.5653 13.271 13.5648 13.2709 13.5625 13.2701L13.4992 13.4598C13.5042 13.4615 13.5099 13.4633 13.5158 13.4647C13.5197 13.4657 13.5314 13.4686 13.5456 13.4686V13.2686ZM13.5603 13.2686H13.5456V13.4686H13.5603V13.2686ZM13.6205 13.2766C13.6097 13.2754 13.6012 13.2744 13.5947 13.2734C13.5915 13.2729 13.5891 13.2725 13.5872 13.2722C13.5853 13.2718 13.5845 13.2716 13.5846 13.2716L13.536 13.4657C13.5533 13.47 13.576 13.473 13.5995 13.4755L13.6205 13.2766ZM13.684 13.2864C13.6667 13.2821 13.644 13.279 13.6205 13.2766L13.5995 13.4755C13.6103 13.4766 13.6188 13.4777 13.6253 13.4786C13.6285 13.4791 13.631 13.4795 13.6328 13.4799C13.6347 13.4802 13.6355 13.4804 13.6355 13.4804L13.684 13.2864ZM13.6744 13.2907C13.7054 13.2907 13.7244 13.3067 13.7304 13.3127L13.589 13.4541C13.6048 13.4699 13.6337 13.4907 13.6744 13.4907V13.2907ZM13.7746 13.3274C13.7548 13.3076 13.732 13.2993 13.7171 13.2956C13.7016 13.2917 13.6866 13.2907 13.6744 13.2907V13.4907C13.677 13.4907 13.6743 13.491 13.6686 13.4896C13.6635 13.4883 13.6481 13.4837 13.6332 13.4688L13.7746 13.3274ZM13.726 13.2981H13.7039V13.4981H13.726V13.2981ZM13.7481 13.3055C13.7537 13.3055 13.7762 13.3069 13.7967 13.3274L13.6553 13.4688C13.6856 13.4991 13.7228 13.5055 13.7481 13.5055V13.3055ZM14.135 13.443C13.995 13.3805 13.8741 13.3352 13.7735 13.3088L13.7226 13.5022C13.8086 13.5248 13.9185 13.5654 14.0534 13.6257L14.135 13.443ZM14.5394 13.7022C14.4305 13.6066 14.296 13.5209 14.1378 13.4443L14.0506 13.6244C14.1967 13.6951 14.3151 13.7714 14.4075 13.8525L14.5394 13.7022ZM14.3735 12.7427V13.7774H14.5735V12.7427H14.3735ZM14.4661 12.8427H14.4735V12.6427H14.4661V12.8427ZM14.3772 12.81L14.4214 12.8321L14.5108 12.6532L14.4666 12.6312L14.3772 12.81ZM14.3145 12.7132C14.3145 12.7311 14.3191 12.7629 14.3457 12.7895C14.3723 12.8161 14.404 12.8206 14.4219 12.8206V12.6206C14.4349 12.6206 14.463 12.6239 14.4871 12.648C14.5112 12.6722 14.5145 12.7003 14.5145 12.7132H14.3145ZM13.4652 12.5774C13.7823 12.5987 14.0849 12.6743 14.3734 12.8044L14.4556 12.6221C14.1453 12.4821 13.8194 12.4007 13.4786 12.3778L13.4652 12.5774ZM13.402 12.5702C13.4156 12.5702 13.4257 12.5707 13.4329 12.5715C13.4406 12.5723 13.4423 12.5731 13.4403 12.5724L13.5035 12.3827C13.4727 12.3724 13.4358 12.3702 13.402 12.3702V12.5702ZM13.3946 12.5702H13.402V12.3702H13.3946V12.5702ZM13.3357 12.5702H13.3946V12.3702H13.3357V12.5702ZM13.3283 12.5702H13.3357V12.3702H13.3283V12.5702ZM13.2584 12.5702H13.3283V12.3702H13.2584V12.5702ZM12.2128 12.7825C12.5303 12.6414 12.8784 12.5702 13.2584 12.5702V12.3702C12.8528 12.3702 12.4767 12.4463 12.1315 12.5998L12.2128 12.7825ZM11.3555 13.3584C11.6143 13.0995 11.8989 12.9086 12.2094 12.7839L12.1349 12.5983C11.7973 12.7339 11.4903 12.9406 11.214 13.2169L11.3555 13.3584ZM10.7726 14.2148C10.9124 13.8925 11.1066 13.6072 11.3555 13.3584L11.214 13.2169C10.9474 13.4836 10.739 13.7898 10.5891 14.1352L10.7726 14.2148ZM10.5597 15.1321C10.5835 14.7984 10.6549 14.4927 10.773 14.214L10.5888 14.136C10.4614 14.4367 10.3855 14.7643 10.3602 15.1179L10.5597 15.1321ZM10.56 15.2686V15.125H10.36V15.2686H10.56ZM10.5744 15.5405C10.5646 15.4184 10.56 15.3284 10.56 15.2686H10.36C10.36 15.3365 10.3651 15.433 10.375 15.5564L10.5744 15.5405ZM10.7732 16.3163C10.6587 16.042 10.5931 15.7836 10.5744 15.5408L10.375 15.5561C10.3956 15.8239 10.4674 16.1031 10.5886 16.3934L10.7732 16.3163ZM11.3555 17.1752C11.1016 16.9214 10.9077 16.6351 10.773 16.3159L10.5888 16.3937C10.7339 16.7374 10.9426 17.0451 11.214 17.3166L11.3555 17.1752ZM11.951 17.6256C11.7239 17.5026 11.5261 17.3529 11.3569 17.1767L11.2126 17.3152C11.3969 17.5071 11.6114 17.6692 11.8557 17.8015L11.951 17.6256ZM12.2082 17.7565C12.1392 17.7298 12.0548 17.6873 11.9545 17.6276L11.8522 17.7995C11.9581 17.8625 12.0529 17.9109 12.136 17.943L12.2082 17.7565ZM12.2648 17.7784C12.2391 17.7686 12.2207 17.7615 12.2093 17.7569L12.135 17.9426C12.1481 17.9479 12.1677 17.9555 12.1936 17.9653L12.2648 17.7784ZM12.3234 17.8011C12.3103 17.7959 12.2907 17.7883 12.2648 17.7784L12.1936 17.9653C12.2193 17.9751 12.2377 17.9822 12.2491 17.9868L12.3234 17.8011ZM12.3662 17.8168C12.3475 17.8088 12.3282 17.8014 12.3105 17.7969L12.262 17.991C12.264 17.9915 12.2717 17.9939 12.2874 18.0006L12.3662 17.8168ZM12.3915 17.8264C12.3895 17.8259 12.3818 17.8235 12.3662 17.8168L12.2874 18.0006C12.3061 18.0086 12.3254 18.016 12.343 18.0204L12.3915 17.8264ZM12.3783 17.8234H12.3673V18.0234H12.3783V17.8234ZM13.2584 17.967C12.9519 17.967 12.67 17.9207 12.4118 17.8292L12.3449 18.0177C12.6267 18.1176 12.9315 18.167 13.2584 18.167V17.967ZM13.3283 17.967H13.2584V18.167H13.3283V17.967ZM13.3357 17.967H13.3283V18.167H13.3357V17.967ZM13.3946 17.967H13.3357V18.167H13.3946V17.967ZM13.402 17.967H13.3946V18.167H13.402V17.967ZM14.362 17.733C14.0671 17.8675 13.7454 17.9458 13.3959 17.9672L13.4081 18.1668C13.7803 18.144 14.1262 18.0604 14.445 17.915L14.362 17.733ZM14.4145 17.7166C14.3833 17.7166 14.3613 17.7307 14.3545 17.7353C14.345 17.7416 14.3376 17.7485 14.3328 17.7533L14.4742 17.8947C14.474 17.8949 14.4733 17.8956 14.472 17.8967C14.4708 17.8977 14.4686 17.8996 14.4654 17.9017C14.4624 17.9037 14.457 17.907 14.4496 17.9099C14.4424 17.9128 14.4302 17.9166 14.4145 17.9166V17.7166ZM14.4032 17.7127C14.3909 17.7177 14.3788 17.7227 14.3698 17.7272L14.4593 17.9061C14.4592 17.9061 14.4605 17.9055 14.4641 17.904C14.4674 17.9025 14.4718 17.9007 14.4775 17.8984L14.4032 17.7127ZM14.4214 17.7051C14.4215 17.7051 14.4201 17.7057 14.4166 17.7072C14.4133 17.7087 14.4088 17.7105 14.4032 17.7127L14.4775 17.8984C14.4897 17.8935 14.5018 17.8885 14.5108 17.884L14.4214 17.7051ZM14.4322 17.7018C14.4363 17.6976 14.4394 17.6954 14.4397 17.6952C14.4403 17.6948 14.4401 17.695 14.4386 17.6959C14.4355 17.6978 14.43 17.7008 14.4214 17.7051L14.5108 17.884C14.5219 17.8785 14.5323 17.8729 14.5415 17.8674C14.5489 17.863 14.562 17.8547 14.5736 17.8432L14.4322 17.7018ZM14.5176 17.6725H14.5029V17.8725H14.5176V17.6725ZM14.4617 17.687L14.4469 17.7017L14.5884 17.8432L14.6031 17.8284L14.4617 17.687ZM14.5022 17.6723C14.5079 17.6665 14.5147 17.6624 14.5212 17.6601C14.5273 17.6578 14.5315 17.6577 14.5324 17.6577V17.8577C14.5694 17.8577 14.6108 17.8465 14.6436 17.8137L14.5022 17.6723ZM14.5392 17.6462C14.5296 17.651 14.5153 17.6591 14.5022 17.6723L14.6436 17.8137C14.6391 17.8182 14.6352 17.821 14.6329 17.8225C14.6306 17.8241 14.6291 17.8249 14.6286 17.8251L14.5392 17.6462ZM14.5243 17.6576C14.5288 17.6531 14.5327 17.6502 14.5349 17.6487C14.5372 17.6472 14.5388 17.6464 14.5392 17.6462L14.6286 17.8251C14.6383 17.8203 14.6525 17.8121 14.6657 17.799L14.5243 17.6576ZM14.5818 17.626C14.5716 17.6294 14.5607 17.6336 14.5502 17.6388L14.6397 17.8177C14.639 17.818 14.6404 17.8173 14.645 17.8158L14.5818 17.626ZM14.5871 17.6241C14.5877 17.6238 14.5863 17.6245 14.5818 17.626L14.645 17.8158C14.6552 17.8124 14.666 17.8082 14.6765 17.803L14.5871 17.6241ZM14.5981 17.6167C14.5885 17.6215 14.5742 17.6297 14.5611 17.6428L14.7025 17.7843C14.698 17.7887 14.6941 17.7916 14.6919 17.7931C14.6896 17.7946 14.688 17.7954 14.6876 17.7956L14.5981 17.6167ZM14.5832 17.6281C14.5877 17.6236 14.5916 17.6208 14.5938 17.6193C14.5961 17.6177 14.5977 17.6169 14.5981 17.6167L14.6876 17.7956C14.6972 17.7908 14.7114 17.7827 14.7246 17.7695L14.5832 17.6281ZM14.6202 17.602C14.6106 17.6068 14.5963 17.6149 14.5832 17.6281L14.7246 17.7695C14.7201 17.774 14.7162 17.7769 14.7139 17.7783C14.7116 17.7799 14.7101 17.7807 14.7097 17.7809L14.6202 17.602ZM14.6052 17.6134C14.6098 17.6089 14.6137 17.606 14.6159 17.6046C14.6182 17.603 14.6198 17.6022 14.6202 17.602L14.7097 17.7809C14.7193 17.7761 14.7335 17.7679 14.7467 17.7548L14.6052 17.6134ZM14.6347 17.5876C14.6281 17.5942 14.6237 17.5983 14.6212 17.6005C14.6199 17.6017 14.6198 17.6017 14.6206 17.6011C14.621 17.6008 14.622 17.6 14.6235 17.599C14.625 17.5981 14.6276 17.5965 14.6313 17.5946L14.7207 17.7735C14.7358 17.766 14.7479 17.7554 14.7529 17.7511C14.7601 17.7447 14.768 17.7371 14.7761 17.729L14.6347 17.5876ZM14.6679 17.5729C14.6704 17.5704 14.6751 17.5665 14.6823 17.5632C14.6898 17.5599 14.6978 17.5583 14.7054 17.5583V17.7583C14.7478 17.7583 14.7834 17.7402 14.8093 17.7143L14.6679 17.5729ZM14.69 17.5581C14.6874 17.5607 14.6883 17.5593 14.6923 17.5567C14.6944 17.5553 14.6989 17.5525 14.7056 17.5498C14.712 17.5472 14.7235 17.5436 14.7386 17.5436V17.7436C14.7711 17.7436 14.7946 17.7289 14.8032 17.7231C14.8146 17.7155 14.8241 17.7068 14.8314 17.6996L14.69 17.5581ZM14.7194 17.5434C14.7205 17.5423 14.7346 17.5289 14.7607 17.5289V17.7289C14.8064 17.7289 14.8401 17.7056 14.8608 17.6848L14.7194 17.5434ZM14.8048 17.5068C14.7641 17.5068 14.7352 17.5276 14.7194 17.5434L14.8608 17.6848C14.8548 17.6908 14.8358 17.7068 14.8048 17.7068V17.5068ZM14.9428 17.3885L14.7476 17.5248L14.8621 17.6888L15.0572 17.5525L14.9428 17.3885ZM14.9 15.9572V17.4705H15.1V15.9572H14.9Z" fill="white"/>
</svg>
