<svg width="24" height="24" viewBox="0 0 24 24" fill="none" xmlns="http://www.w3.org/2000/svg">
<rect x="1" y="1" width="16" height="16" rx="2" fill="#D8D8D8" fill-opacity="0.01" stroke="white" stroke-width="1.5"/>
<path fillRule="evenodd" clipRule="evenodd" d="M12.9367 10.8659H12.3241V8.79739L11.1041 10.6147L9.88141 8.79739V10.8659H9.27393V6.79297L11.1041 9.52277L12.9367 6.79297V10.8659ZM5.39581 10.8659V6.96983H4.78834V8.63591H3.23248V6.96983H2.625V10.8659H3.23248V9.18699H4.78834V10.8659H5.39581ZM8.71259 7.51579V6.96983H5.95459V7.51579H7.02601V10.8659H7.64117V7.51579H8.71259ZM15.9844 10.8659V10.3148H14.3567V6.96983H13.7493V10.8659H14.3516H15.9844Z" fill="#F9F9F9"/>
<path d="M12.3241 10.8659H12.1741C12.1741 10.9487 12.2413 11.0159 12.3241 11.0159V10.8659ZM12.9367 10.8659V11.0159C13.0196 11.0159 13.0867 10.9487 13.0867 10.8659H12.9367ZM12.3241 8.79739H12.4741C12.4741 8.73138 12.431 8.67313 12.3678 8.65389C12.3047 8.63466 12.2364 8.65897 12.1996 8.71378L12.3241 8.79739ZM11.1041 10.6147L10.9796 10.6984C11.0075 10.7399 11.0542 10.7647 11.1041 10.7647C11.1541 10.7647 11.2007 10.7398 11.2286 10.6983L11.1041 10.6147ZM9.88141 8.79739L10.0059 8.71366C9.96903 8.65891 9.90075 8.63466 9.83764 8.65392C9.77452 8.67317 9.73141 8.7314 9.73141 8.79739H9.88141ZM9.88141 10.8659V11.0159C9.96425 11.0159 10.0314 10.9487 10.0314 10.8659H9.88141ZM9.27393 10.8659H9.12393C9.12393 10.9487 9.19109 11.0159 9.27393 11.0159V10.8659ZM9.27393 6.79297L9.39852 6.70944C9.36175 6.6546 9.29345 6.63025 9.23028 6.64946C9.16711 6.66868 9.12393 6.72694 9.12393 6.79297H9.27393ZM11.1041 9.52277L10.9795 9.6063C11.0073 9.64783 11.054 9.67276 11.104 9.67277C11.154 9.67279 11.2007 9.64789 11.2286 9.60638L11.1041 9.52277ZM12.9367 6.79297H13.0867C13.0867 6.72696 13.0436 6.66871 12.9804 6.64948C12.9173 6.63024 12.849 6.65455 12.8122 6.70936L12.9367 6.79297ZM5.39581 6.96983H5.54581C5.54581 6.88699 5.47866 6.81983 5.39581 6.81983V6.96983ZM5.39581 10.8659V11.0159C5.47866 11.0159 5.54581 10.9487 5.54581 10.8659H5.39581ZM4.78834 6.96983V6.81983C4.70549 6.81983 4.63834 6.88699 4.63834 6.96983H4.78834ZM4.78834 8.63591V8.78591C4.87118 8.78591 4.93834 8.71875 4.93834 8.63591H4.78834ZM3.23248 8.63591H3.08248C3.08248 8.71875 3.14963 8.78591 3.23248 8.78591V8.63591ZM3.23248 6.96983H3.38248C3.38248 6.88699 3.31532 6.81983 3.23248 6.81983V6.96983ZM2.625 6.96983V6.81983C2.54216 6.81983 2.475 6.88699 2.475 6.96983H2.625ZM2.625 10.8659H2.475C2.475 10.9487 2.54216 11.0159 2.625 11.0159V10.8659ZM3.23248 10.8659V11.0159C3.31532 11.0159 3.38248 10.9487 3.38248 10.8659H3.23248ZM3.23248 9.18699V9.03699C3.14963 9.03699 3.08248 9.10415 3.08248 9.18699H3.23248ZM4.78834 9.18699H4.93834C4.93834 9.10415 4.87118 9.03699 4.78834 9.03699V9.18699ZM4.78834 10.8659H4.63834C4.63834 10.9487 4.70549 11.0159 4.78834 11.0159V10.8659ZM8.71259 6.96983H8.86259C8.86259 6.88699 8.79543 6.81983 8.71259 6.81983V6.96983ZM8.71259 7.51579V7.66579C8.79543 7.66579 8.86259 7.59863 8.86259 7.51579H8.71259ZM5.95459 6.96983V6.81983C5.87175 6.81983 5.80459 6.88699 5.80459 6.96983H5.95459ZM5.95459 7.51579H5.80459C5.80459 7.59863 5.87175 7.66579 5.95459 7.66579V7.51579ZM7.02601 7.51579H7.17601C7.17601 7.43295 7.10885 7.36579 7.02601 7.36579V7.51579ZM7.02601 10.8659H6.87601C6.87601 10.9487 6.94316 11.0159 7.02601 11.0159V10.8659ZM7.64117 10.8659V11.0159C7.72402 11.0159 7.79117 10.9487 7.79117 10.8659H7.64117ZM7.64117 7.51579V7.36579C7.55833 7.36579 7.49117 7.43295 7.49117 7.51579H7.64117ZM15.9844 10.3148H16.1344C16.1344 10.232 16.0672 10.1648 15.9844 10.1648V10.3148ZM15.9844 10.8659V11.0159C16.0672 11.0159 16.1344 10.9487 16.1344 10.8659H15.9844ZM14.3567 10.3148H14.2067C14.2067 10.3976 14.2739 10.4648 14.3567 10.4648V10.3148ZM14.3567 6.96983H14.5067C14.5067 6.88699 14.4396 6.81983 14.3567 6.81983V6.96983ZM13.7493 6.96983V6.81983C13.6664 6.81983 13.5993 6.88699 13.5993 6.96983H13.7493ZM13.7493 10.8659H13.5993C13.5993 10.9487 13.6664 11.0159 13.7493 11.0159V10.8659ZM12.3241 11.0159H12.9367V10.7159H12.3241V11.0159ZM12.1741 8.79739V10.8659H12.4741V8.79739H12.1741ZM11.2286 10.6983L12.4487 8.881L12.1996 8.71378L10.9795 10.5311L11.2286 10.6983ZM9.75695 8.88112L10.9796 10.6984L11.2285 10.531L10.0059 8.71366L9.75695 8.88112ZM10.0314 10.8659V8.79739H9.73141V10.8659H10.0314ZM9.27393 11.0159H9.88141V10.7159H9.27393V11.0159ZM9.12393 6.79297V10.8659H9.42393V6.79297H9.12393ZM11.2286 9.43924L9.39852 6.70944L9.14934 6.8765L10.9795 9.6063L11.2286 9.43924ZM12.8122 6.70936L10.9795 9.43916L11.2286 9.60638L13.0613 6.87658L12.8122 6.70936ZM13.0867 10.8659V6.79297H12.7867V10.8659H13.0867ZM5.24581 6.96983V10.8659H5.54581V6.96983H5.24581ZM4.78834 7.11983H5.39581V6.81983H4.78834V7.11983ZM4.93834 8.63591V6.96983H4.63834V8.63591H4.93834ZM3.23248 8.78591H4.78834V8.48591H3.23248V8.78591ZM3.08248 6.96983V8.63591H3.38248V6.96983H3.08248ZM2.625 7.11983H3.23248V6.81983H2.625V7.11983ZM2.775 10.8659V6.96983H2.475V10.8659H2.775ZM3.23248 10.7159H2.625V11.0159H3.23248V10.7159ZM3.08248 9.18699V10.8659H3.38248V9.18699H3.08248ZM4.78834 9.03699H3.23248V9.33699H4.78834V9.03699ZM4.93834 10.8659V9.18699H4.63834V10.8659H4.93834ZM5.39581 10.7159H4.78834V11.0159H5.39581V10.7159ZM8.56259 6.96983V7.51579H8.86259V6.96983H8.56259ZM5.95459 7.11983H8.71259V6.81983H5.95459V7.11983ZM6.10459 7.51579V6.96983H5.80459V7.51579H6.10459ZM7.02601 7.36579H5.95459V7.66579H7.02601V7.36579ZM7.17601 10.8659V7.51579H6.87601V10.8659H7.17601ZM7.64117 10.7159H7.02601V11.0159H7.64117V10.7159ZM7.49117 7.51579V10.8659H7.79117V7.51579H7.49117ZM8.71259 7.36579H7.64117V7.66579H8.71259V7.36579ZM15.8344 10.3148V10.8659H16.1344V10.3148H15.8344ZM14.3567 10.4648H15.9844V10.1648H14.3567V10.4648ZM14.2067 6.96983V10.3148H14.5067V6.96983H14.2067ZM13.7493 7.11983H14.3567V6.81983H13.7493V7.11983ZM13.8993 10.8659V6.96983H13.5993V10.8659H13.8993ZM14.3516 10.7159H13.7493V11.0159H14.3516V10.7159ZM15.9844 10.7159H14.3516V11.0159H15.9844V10.7159Z" fill="#F9F9F9"/>
<path fillRule="evenodd" clipRule="evenodd" d="M12 17.1944V21.7778C12 22.4528 12.5794 23 13.2941 23H21.7059C22.4206 23 23 22.4528 23 21.7778V13.2222C23 12.5472 22.4206 12 21.7059 12H16.8529" fill="#D8D8D8" fill-opacity="0.01"/>
<path d="M12 17.1944V21.7778C12 22.4528 12.5794 23 13.2941 23H21.7059C22.4206 23 23 22.4528 23 21.7778V13.2222C23 12.5472 22.4206 12 21.7059 12H16.8529" stroke="white" stroke-width="1.5"/>
<path d="M18.666 18.5002L21.2004 20.9551" stroke="white" stroke-linecap="round"/>
<path d="M18.3062 21.1816H21.3062V18.1816" stroke="white" stroke-linecap="round" stroke-linejoin="round"/>
</svg>
