<svg width="24" height="24" viewBox="0 0 24 24" fill="none" xmlns="http://www.w3.org/2000/svg">
<circle cx="12" cy="12" r="10" stroke="#F9F9F9" stroke-width="1.5" stroke-linejoin="round"/>
<path fill-rule="evenodd" clip-rule="evenodd" d="M16.0932 9.34416C16.243 8.55016 16.0882 7.84104 15.6287 7.21682C15.3091 6.78736 14.8709 6.44903 14.3141 6.20184C13.7573 5.95465 13.1568 5.83105 12.5126 5.83105C12.1331 5.83105 11.7261 5.88848 11.2917 6.00334C10.5076 6.21308 9.88342 6.5976 9.419 7.1569C8.9346 7.74117 8.67742 8.44029 8.64746 9.25428H10.5351C10.5501 8.79485 10.6949 8.41283 10.9696 8.10821C11.1893 7.85852 11.4839 7.68873 11.8535 7.59885C12.0532 7.53892 12.2729 7.50896 12.5126 7.50896C12.7074 7.50896 12.9171 7.53393 13.1418 7.58386C13.5613 7.69373 13.8634 7.8785 14.0482 8.13817C14.2929 8.46276 14.3304 8.85977 14.1606 9.32918C14.0158 9.77862 13.6887 10.2905 13.1793 10.8648C13.0944 10.9497 13.022 11.0171 12.9621 11.067C12.4427 11.6113 12.0532 12.1232 11.7935 12.6026C11.3591 13.3666 11.1194 14.1831 11.0744 15.052C11.3241 14.9122 11.6312 14.8423 11.9958 14.8423C12.3503 14.8423 12.6724 14.9122 12.9621 15.052C12.992 14.4728 13.1543 13.911 13.449 13.3666C13.6737 12.9671 13.9808 12.5726 14.3703 12.1831L14.6475 11.906C15.4365 11.0171 15.9184 10.1631 16.0932 9.34416ZM11.9808 15.7786C11.6962 15.7786 11.454 15.8785 11.2542 16.0782C11.0545 16.278 10.9546 16.5202 10.9546 16.8048C10.9546 17.0895 11.0545 17.3317 11.2542 17.5314C11.454 17.7312 11.6962 17.8311 11.9808 17.8311C12.2654 17.8311 12.5076 17.7312 12.7074 17.5314C12.9071 17.3317 13.007 17.0895 13.007 16.8048C13.007 16.5202 12.9071 16.278 12.7074 16.0782C12.5076 15.8785 12.2654 15.7786 11.9808 15.7786Z" fill="#F9F9F9"/>
</svg>
