<svg width="24" height="24" viewBox="0 0 24 24" fill="none" xmlns="http://www.w3.org/2000/svg">
<path fill-rule="evenodd" clip-rule="evenodd" d="M9.07489 3.94764H7.31806C7.12498 3.94764 6.96826 3.79092 6.96826 3.59784V1.84101C6.96826 1.64793 7.12498 1.49121 7.31806 1.49121H9.07489C9.26797 1.49121 9.42469 1.64769 9.42469 1.84101V3.59784C9.42469 3.79092 9.26797 3.94764 9.07489 3.94764ZM9.77448 3.94764H11.5313C11.7244 3.94764 11.8811 4.10436 11.8811 4.29743V6.05427C11.8811 6.24734 11.7244 6.40406 11.5313 6.40406H9.77448C9.58141 6.40406 9.42469 6.24759 9.42469 6.05427V4.29743C9.42469 4.10436 9.58141 3.94764 9.77448 3.94764ZM7.31806 8.86049H9.07489C9.26797 8.86049 9.42469 8.70377 9.42469 8.51069V6.75386C9.42469 6.56054 9.26797 6.40406 9.07489 6.40406H7.31806C7.12498 6.40406 6.96826 6.56078 6.96826 6.75386V8.51069C6.96826 8.70377 7.12498 8.86049 7.31806 8.86049ZM9.77448 8.86049H11.5313C11.7244 8.86049 11.8811 9.01721 11.8811 9.21029V10.9671C11.8811 11.1602 11.7244 11.3169 11.5313 11.3169H9.77448C9.58141 11.3169 9.42469 11.1604 9.42469 10.9671V9.21029C9.42469 9.01721 9.58141 8.86049 9.77448 8.86049ZM11.0223 12.6731H7.72754C7.30823 12.6731 6.96826 13.0131 6.96826 13.4324V17.2516C6.96826 17.671 7.30823 18.0109 7.72754 18.0109H11.0223C11.4417 18.0109 11.7816 17.671 11.7816 17.2516V13.4324C11.7816 13.0131 11.4417 12.6731 11.0223 12.6731ZM10.2911 17.3263C10.6281 17.3263 10.9012 17.0532 10.9012 16.7161V16.0441C10.9012 15.707 10.6281 15.4339 10.2911 15.4339H8.45858C8.12155 15.4339 7.8484 15.707 7.8484 16.0441V16.7161C7.8484 17.0532 8.12155 17.3263 8.45858 17.3263H10.2911Z" fill="white"/>
<path fill-rule="evenodd" clip-rule="evenodd" d="M3 4C3 2.34315 4.34315 1 6 1H15.7301C16.5419 1 17.3189 1.32892 17.884 1.91167L21.1538 5.28405C21.6965 5.84377 22 6.59276 22 7.37238V20C22 21.6569 20.6569 23 19 23H6C4.34315 23 3 21.6569 3 20V4Z" stroke="#F9F9F9" stroke-width="1.5"/>
<path fill-rule="evenodd" clip-rule="evenodd" d="M16 2.41421C16 1.52331 17.0771 1.07714 17.7071 1.70711L21.2929 5.29289C21.9229 5.92286 21.4767 7 20.5858 7H17C16.4477 7 16 6.55228 16 6V2.41421Z" stroke="#F9F9F9" stroke-width="1.5"/>
</svg>
