<svg width="257" height="300" viewBox="0 0 257 300" fill="none" xmlns="http://www.w3.org/2000/svg">
<path d="M145.113 148.802C152.6 148.337 168.448 148.236 171.94 151.554C175.431 154.872 157.193 171.031 147.637 178.695L159.391 181.215" stroke="#E8E4C8" stroke-width="4" stroke-linecap="round" stroke-linejoin="round"/>
<g clip-path="url(#clip0_2_18383)">
<path d="M92.4319 231.279C97.1829 239.255 94.5337 249.709 86.5575 254.461C78.5814 259.212 57.7291 262.756 52.9781 254.78C48.2271 246.804 61.2738 230.155 69.2502 225.404C77.2263 220.653 87.5673 223.274 92.4319 231.279Z" fill="#EFC75E"/>
<path d="M74.2322 223.401L74.0594 224.083C71.0646 235.901 78.2761 248.008 90.0943 251.003L90.5488 251.118C95.2857 245.788 96.2209 237.802 92.3183 231.25C88.6141 224.869 81.1462 221.888 74.2322 223.401V223.401Z" fill="#DEB957"/>
<path d="M134.883 204.063C149.391 228.419 146.257 257.011 123.183 270.755L112.216 277.288C89.1416 291.032 113.071 250.053 98.5628 225.697C84.055 201.341 36.4827 202.951 59.6993 189.122L70.6666 182.589C93.7408 168.846 120.375 179.707 134.883 204.063V204.063Z" fill="#F26C4F"/>
<path d="M215.5 156.043C219.912 163.449 207.796 200.287 162.331 227.465C132.734 244.998 115.745 249.521 115.745 249.521C97.2426 256.201 91.4721 246.998 84.006 234.464C76.5398 221.93 71.0831 212.445 85.8811 199.385C85.8811 199.385 98.0915 186.516 127.604 168.84C173.04 141.776 211.117 148.523 215.5 156.043Z" fill="#F4F0D3"/>
<path d="M123.291 245.991C104.02 252.839 97.9662 243.323 90.2457 230.362C82.4403 217.258 76.8135 207.488 92.239 193.861L94.6347 191.566C88.6767 196.465 85.8811 199.385 85.8811 199.385C71.0831 212.445 76.5402 221.93 84.006 234.464C91.4718 246.999 97.2714 256.087 115.745 249.521C115.745 249.521 123.798 247.329 138.52 240.297C128.612 244.559 123.291 245.991 123.291 245.991Z" fill="#E8E4C8"/>
<path d="M167.785 184.465C171.942 191.444 169.667 200.421 162.688 204.578C155.709 208.735 146.732 206.461 142.574 199.481C138.417 192.502 140.692 183.525 147.671 179.368C154.65 175.21 163.742 177.514 167.785 184.465Z" fill="#8BA0AB"/>
<path d="M126.017 211.37C128.138 214.931 120.121 223.662 102.744 234.013C85.3671 244.363 76.0079 245.982 73.9158 242.308C71.7948 238.747 77.5621 231.259 94.9388 220.909C112.429 210.587 123.812 207.667 126.017 211.37Z" fill="#F26C4F"/>
<path d="M157.987 181.135C160.828 181.855 163.267 183.682 164.794 186.246C166.321 188.81 166.767 191.826 166.047 194.666C165.327 197.507 163.5 199.947 160.935 201.474C158.372 203.001 155.356 203.446 152.515 202.726C149.675 202.006 147.235 200.179 145.708 197.615C144.181 195.051 143.736 192.036 144.455 189.195C145.175 186.354 147.003 183.915 149.567 182.388C152.13 180.86 155.146 180.415 157.987 181.135ZM158.851 177.726C155.214 176.805 151.232 177.247 147.785 179.397C140.806 183.554 138.531 192.531 142.688 199.51C144.724 202.929 147.986 205.327 151.623 206.249C155.259 207.17 159.241 206.728 162.688 204.578C169.667 200.421 171.942 191.444 167.785 184.465C165.778 180.933 162.487 178.648 158.851 177.726Z" fill="#324D5B"/>
<path d="M180.007 150.072C179.101 157.945 181.147 167.05 186.153 175.454C190.593 182.747 196.432 188.338 202.734 191.628C214.956 174.892 218.016 160.43 215.5 156.043C213.068 151.799 199.576 147.775 180.007 150.072V150.072Z" fill="#F26C4F"/>
</g>
<path d="M138.15 44.5266C137.216 40.8254 133.131 38.8812 129.681 40.513L50.942 77.7474C48.378 78.9599 47.015 81.7932 47.7202 84.5404C50.367 94.8514 57.1607 119.77 64.8394 135.796C71.9251 150.585 85.842 169.877 91.8701 177.971C93.5528 180.23 96.5821 180.95 99.1288 179.746L177.226 142.815C180.886 141.084 181.856 136.269 179.262 133.16C172.307 124.821 160.245 109.22 153.465 93.8866C147.599 80.6174 141.178 56.5212 138.15 44.5266Z" fill="#2451C5"/>
<path d="M120.114 166.802C127.601 166.337 143.449 166.236 146.94 169.554C150.432 172.872 132.193 189.031 122.638 196.695L134.391 199.215" stroke="#E8E4C8" stroke-width="4" stroke-linecap="round" stroke-linejoin="round"/>
<path d="M154.5 96.0001L187.5 50.0001M187.5 50.0001L185 40M187.5 50.0001L205 44" stroke="white" stroke-width="4" stroke-linecap="round" stroke-linejoin="round"/>
<mask id="mask0_2_18383" style="mask-type:alpha" maskUnits="userSpaceOnUse" x="47" y="39" width="134" height="142">
<path d="M138.15 44.5266C137.216 40.8254 133.131 38.8812 129.681 40.513L50.942 77.7474C48.378 78.9599 47.015 81.7932 47.7202 84.5404C50.367 94.8514 57.1607 119.77 64.8394 135.796C71.9251 150.585 85.842 169.877 91.8701 177.971C93.5528 180.23 96.5821 180.95 99.1288 179.746L177.226 142.815C180.886 141.084 181.856 136.269 179.262 133.16C172.307 124.821 160.245 109.22 153.465 93.8866C147.599 80.6174 141.178 56.5212 138.15 44.5266Z" fill="#3D86F7"/>
</mask>
<g mask="url(#mask0_2_18383)">
<path d="M153.933 36.4683C152.999 32.7671 148.914 30.8229 145.464 32.4548L66.7249 69.6891C64.1609 70.9016 62.7979 73.7349 63.5031 76.4821C66.15 86.7932 72.9437 111.711 80.6224 127.738C87.7081 142.527 101.625 161.819 107.653 169.913C109.336 172.172 112.365 172.892 114.912 171.687L193.008 134.757C196.669 133.026 197.639 128.211 195.045 125.101C188.09 116.763 176.028 101.162 169.248 85.8283C163.381 72.5591 156.961 48.4629 153.933 36.4683Z" fill="#3D86F7"/>
<path d="M143.5 119L127.5 128C129.5 130.833 141 141 145 135.5C149 130 141 125.5 143.5 119Z" stroke="white" stroke-width="4" stroke-linecap="round" stroke-linejoin="round"/>
</g>
<path d="M78.5006 139.5C65.3339 136.333 43.4995 139 35 125C25.4761 109.312 25.5 98 27.5001 87.4999M27.5001 87.4999L24 77.5M27.5001 87.4999L34 78.5" stroke="white" stroke-width="4" stroke-linecap="round" stroke-linejoin="round"/>
<path d="M122.114 166.802C129.601 166.337 145.449 166.236 148.94 169.554C152.432 172.872 134.194 189.031 124.638 196.695L136.392 199.215" stroke="white" stroke-width="4" stroke-linecap="round" stroke-linejoin="round"/>
<path fillRule="evenodd" clipRule="evenodd" d="M130.991 77.7747C133.43 76.621 135.655 77.4168 136.486 78.0688C137.069 78.5267 137.914 78.4249 138.372 77.8415C138.829 77.258 138.728 76.4138 138.144 75.9559C136.613 74.7539 133.311 73.7064 129.842 75.3467C128.531 75.9667 127.509 77.3687 126.914 78.5226C126.601 79.129 126.352 79.7702 126.226 80.3556C126.164 80.6462 126.122 80.9705 126.14 81.2944C126.157 81.597 126.236 82.056 126.564 82.4566C127.034 83.0302 127.881 83.114 128.454 82.6437C128.933 82.2508 129.071 81.5952 128.828 81.0557C128.833 81.0187 128.841 80.973 128.853 80.9184C128.915 80.6256 129.065 80.2118 129.301 79.7539C129.804 78.7793 130.481 78.0159 130.991 77.7747Z" fill="white"/>
<path fillRule="evenodd" clipRule="evenodd" d="M105.118 87.457C106.303 87.6042 107.445 87.9207 108.111 88.159C108.81 88.4089 109.578 88.0454 109.828 87.3471C110.078 86.6488 109.715 85.8801 109.016 85.6302C108.192 85.3352 106.857 84.9665 105.45 84.7916C104.096 84.6233 102.422 84.5996 101.091 85.2289C99.7051 85.8843 98.8578 87.1553 98.3543 88.2696C97.8413 89.4049 97.5915 90.5815 97.5149 91.3551C97.4419 92.0932 97.9809 92.7508 98.719 92.8239C99.4571 92.8969 100.115 92.3579 100.188 91.6198C100.24 91.0946 100.426 90.2083 100.802 89.3756C101.188 88.522 101.683 87.9201 102.239 87.657C102.851 87.3677 103.881 87.3032 105.118 87.457Z" fill="white"/>
<ellipse rx="4.02885" ry="5.3718" transform="matrix(-0.904017 0.427496 0.427496 0.904017 142.219 99.9476)" fill="white"/>
<ellipse rx="4.02885" ry="5.3718" transform="matrix(-0.904017 0.427496 0.427496 0.904017 111.933 111.298)" fill="white"/>
<ellipse cx="27.5" cy="87" rx="5.5" ry="5" fill="white"/>
<ellipse cx="188" cy="50" rx="7" ry="5" fill="white"/>
<defs>
<clipPath id="clip0_2_18383">
<rect width="150" height="150" fill="white" transform="translate(73.1729 117.327) rotate(14.2197)"/>
</clipPath>
</defs>
</svg>
