<svg width="200" height="42" viewBox="0 0 200 42" fill="none" xmlns="http://www.w3.org/2000/svg">
<path fill-rule="evenodd" clip-rule="evenodd" d="M182.107 10.3262V29.407H178.765V21.3602L178.886 18.1845L177.93 19.6378L174.238 23.9707L170.546 19.6378L169.589 18.1845L169.737 21.3602V29.407H166.395V10.3262H166.665L174.264 19.2745L181.81 10.3262H182.107ZM52.5962 26.6888H59.3065L60.3575 29.407H64.0225L56.0456 10.3262H55.7761L47.8262 29.407H51.599L52.5962 26.6888ZM56.342 18.965L58.3093 24.0784H53.5663L55.4527 18.965L55.8839 17.4579L56.342 18.965ZM63.0421 16.0046H66.4646L68.0816 22.3829L68.7823 25.2086L69.3751 22.3829L71.1268 16.0046H73.9295L75.789 22.3829L76.4897 25.2086L77.1095 22.3829L78.6726 16.0046H81.9873L77.7563 29.407H75.0344L72.8785 22.1137L72.4473 19.9338L72.0161 22.1137L70.0219 29.407H67.327L63.0421 16.0046ZM85.5672 28.8418C86.5104 29.4518 87.7052 29.7568 89.1514 29.7568C91.1187 29.7568 92.7356 29.3352 94.0022 28.492L92.9243 25.9353C92.6189 26.2851 92.1473 26.5857 91.5095 26.8368C90.8717 27.0791 90.2743 27.2002 89.7174 27.2002C88.6484 27.2002 87.8354 26.9086 87.2785 26.3255C86.7305 25.7334 86.4296 24.8947 86.3757 23.8092H94.4604C94.4963 23.271 94.5143 22.7866 94.5143 22.356C94.5143 20.1402 94.0966 18.4761 93.2611 17.3637C92.4257 16.2424 91.0379 15.6817 89.0975 15.6817C87.795 15.6817 86.6721 16.0047 85.7289 16.6506C84.7857 17.2875 84.067 18.1532 83.573 19.2476C83.0879 20.333 82.8454 21.5396 82.8454 22.8673C82.8454 24.168 83.0609 25.3342 83.4921 26.3659C83.9323 27.3975 84.624 28.2228 85.5672 28.8418ZM91.0917 21.7101C91.0917 20.3914 90.9256 19.4854 90.5932 18.992C90.2698 18.4896 89.7982 18.2384 89.1784 18.2384C88.307 18.2384 87.6288 18.5614 87.1437 19.2073C86.6676 19.8532 86.4026 20.6874 86.3487 21.7101H91.0917ZM97.8843 29.1782C98.6209 29.4922 99.6315 29.6492 100.916 29.6492C102.102 29.6492 103.077 29.4563 103.84 29.0706C104.613 28.6848 105.174 28.178 105.524 27.55C105.884 26.9131 106.063 26.2044 106.063 25.424C106.063 24.491 105.74 23.7016 105.093 23.0557C104.446 22.4008 103.521 21.8356 102.317 21.3602C101.482 21.0283 100.862 20.7278 100.458 20.4586C100.063 20.1895 99.8651 19.8531 99.8651 19.4494C99.8651 19.0457 99.9998 18.7587 100.269 18.5882C100.548 18.4088 101.024 18.3191 101.698 18.3191C102.264 18.3191 102.812 18.4312 103.342 18.6555C103.88 18.8708 104.357 19.1355 104.77 19.4494L105.686 17.0273C105.506 16.8479 105.219 16.6595 104.824 16.4622C104.428 16.2558 103.948 16.0854 103.382 15.9508C102.825 15.8073 102.228 15.7355 101.59 15.7355C100.521 15.7355 99.6046 15.897 98.841 16.22C98.0775 16.5429 97.4936 17.0049 97.0893 17.6059C96.6941 18.207 96.4965 18.9112 96.4965 19.7186C96.4965 20.4452 96.6626 21.0642 96.995 21.5755C97.3364 22.0779 97.7361 22.4771 98.1942 22.7731C98.6524 23.0691 99.1914 23.3517 99.8112 23.6208C100.772 24.0425 101.495 24.4147 101.981 24.7377C102.475 25.0517 102.722 25.397 102.722 25.7738C102.722 26.1237 102.578 26.4197 102.29 26.6619C102.012 26.8952 101.581 27.0118 100.997 27.0118C99.7034 27.0118 98.4817 26.5363 97.3319 25.5854L96.3348 28.1421C96.6402 28.5099 97.1567 28.8553 97.8843 29.1782ZM113.92 29.6761C112.608 29.6761 111.49 29.398 110.565 28.8418C109.639 28.2856 108.934 27.4872 108.449 26.4466C107.964 25.397 107.721 24.1411 107.721 22.6789C107.721 21.2167 107.968 19.9608 108.463 18.9112C108.966 17.8616 109.689 17.0632 110.632 16.516C111.584 15.9598 112.716 15.6817 114.028 15.6817C115.33 15.6817 116.435 15.9688 117.342 16.5429C118.259 17.1081 118.95 17.9154 119.417 18.965C119.884 20.0146 120.118 21.2526 120.118 22.6789C120.118 24.0963 119.875 25.3342 119.39 26.3928C118.905 27.4424 118.196 28.2542 117.261 28.8284C116.336 29.3935 115.222 29.6761 113.92 29.6761ZM115.874 25.895C115.442 26.6216 114.809 26.9849 113.974 26.9849C113.093 26.9849 112.429 26.644 111.979 25.9622C111.53 25.2805 111.306 24.186 111.306 22.6789C111.306 21.1719 111.53 20.0729 111.979 19.3822C112.429 18.6914 113.093 18.3461 113.974 18.3461C114.809 18.3461 115.442 18.7139 115.874 19.4495C116.314 20.1761 116.534 21.2526 116.534 22.6789C116.534 24.0963 116.314 25.1683 115.874 25.895ZM137.741 15.6817C139.062 15.6817 140.059 16.1078 140.733 16.96C141.415 17.8033 141.757 19.0009 141.757 20.5528V29.407H138.334V20.9027C138.334 20.1222 138.181 19.5122 137.876 19.0727C137.579 18.6241 137.121 18.3999 136.502 18.3999C136.079 18.3999 135.675 18.5075 135.289 18.7228C134.912 18.9381 134.606 19.2386 134.373 19.6244C134.139 20.0011 134.022 20.4272 134.022 20.9027V29.407H130.573V20.9027C130.573 20.1402 130.402 19.5257 130.061 19.0592C129.728 18.5838 129.252 18.346 128.632 18.346C128.201 18.346 127.806 18.4582 127.447 18.6824C127.087 18.8977 126.8 19.2027 126.584 19.5974C126.369 19.9832 126.261 20.4183 126.261 20.9027V29.407H122.811V16.0047H125.911L125.991 17.7809C126.899 16.3814 128.219 15.6817 129.953 15.6817C130.851 15.6817 131.601 15.8791 132.203 16.2738C132.814 16.6685 133.272 17.2426 133.578 17.9962C134.494 16.4532 135.882 15.6817 137.741 15.6817ZM147.057 28.8418C148 29.4518 149.195 29.7568 150.641 29.7568C152.608 29.7568 154.225 29.3352 155.492 28.492L154.414 25.9353C154.109 26.2851 153.637 26.5857 152.999 26.8368C152.361 27.0791 151.764 27.2002 151.207 27.2002C150.138 27.2002 149.325 26.9086 148.768 26.3255C148.22 25.7334 147.919 24.8947 147.865 23.8092H155.95C155.986 23.271 156.004 22.7866 156.004 22.356C156.004 20.1402 155.586 18.4761 154.751 17.3637C153.915 16.2424 152.528 15.6817 150.587 15.6817C149.285 15.6817 148.162 16.0047 147.219 16.6506C146.275 17.2875 145.557 18.1532 145.063 19.2476C144.578 20.333 144.335 21.5396 144.335 22.8673C144.335 24.168 144.551 25.3342 144.982 26.3659C145.422 27.3975 146.114 28.2228 147.057 28.8418ZM152.581 21.7101C152.581 20.3914 152.415 19.4854 152.083 18.992C151.76 18.4896 151.288 18.2384 150.668 18.2384C149.797 18.2384 149.119 18.5614 148.633 19.2073C148.157 19.8532 147.892 20.6874 147.838 21.7101H152.581ZM162.379 10.6491H158.929V29.4069H162.379V10.6491ZM200 21.9523C200 21.3243 199.946 20.4541 199.838 19.3418H192.805V22.3021H196.658C196.676 22.643 196.685 22.8852 196.685 23.0287C196.685 24.3205 196.384 25.2849 195.783 25.9218C195.19 26.5587 194.215 26.8772 192.859 26.8772C191.996 26.8772 191.237 26.5991 190.581 26.0429C189.935 25.4778 189.432 24.6614 189.072 23.5939C188.722 22.5174 188.547 21.2436 188.547 19.7724C188.547 18.5523 188.753 17.4669 189.167 16.516C189.58 15.5651 190.15 14.825 190.878 14.2957C191.605 13.7664 192.418 13.5018 193.317 13.5018C195.194 13.5018 196.506 13.9952 197.251 14.982L198.733 11.9947C198.419 11.6897 198.064 11.4206 197.669 11.1873C197.274 10.9541 196.712 10.7523 195.985 10.5818C195.266 10.4114 194.359 10.3262 193.263 10.3262C191.655 10.3262 190.218 10.7343 188.951 11.5507C187.693 12.358 186.71 13.4839 186 14.9282C185.29 16.3724 184.936 18.0141 184.936 19.8531C184.936 21.9253 185.272 23.7195 185.946 25.2356C186.629 26.7426 187.563 27.8954 188.749 28.6938C189.944 29.4922 191.296 29.8914 192.805 29.8914C195.518 29.8914 197.395 29.1647 198.437 27.7115C199.479 26.2582 200 24.3385 200 21.9523Z" fill="#F8F8F8"/>
<path fill-rule="evenodd" clip-rule="evenodd" d="M17.3913 2.97712H5.33688L16.9397 15.3569L14.7629 17.3912L2.98137 4.82071V17.3665H0V1.48856C0 0.71481 0.591193 0.0789445 1.34712 0.0068142L1.49068 0H17.3913V2.97712ZM5.33682 38.3273H17.3913V41.3044H1.49068L1.34712 41.2976C0.591193 41.2254 0 40.5896 0 39.8158V23.9379H2.98137V36.4836L14.7629 23.9131L16.9397 25.9474L5.33682 38.3273ZM23.9131 2.97712H35.9675L24.3647 15.3569L26.5415 17.3912L38.323 4.82071V17.3665H41.3044V1.48856C41.3044 0.71481 40.7132 0.0789445 39.9573 0.0068142L39.8137 0H23.9131V2.97712ZM23.9131 38.3273H35.9675L24.3647 25.9474L26.5415 23.9131L38.323 36.4836V23.9379H41.3044V39.8158C41.3044 40.5896 40.7132 41.2254 39.9573 41.2976L39.8137 41.3044H23.9131V38.3273Z" fill="url(#paint0_linear_2_18036)"/>
<defs>
<linearGradient id="paint0_linear_2_18036" x1="-4.88002" y1="25.8462" x2="41.3043" y2="25.8462" gradientUnits="userSpaceOnUse">
<stop stop-color="#342E53"/>
<stop offset="0.0567996" stop-color="#5D2644"/>
<stop offset="0.14702" stop-color="#AE2427"/>
<stop offset="0.264765" stop-color="#D02C10"/>
<stop offset="0.382735" stop-color="#F16B02"/>
<stop offset="0.493345" stop-color="#F1A243"/>
<stop offset="0.607759" stop-color="#F5D0A6"/>
<stop offset="0.72995" stop-color="#DCEAE2"/>
<stop offset="0.854857" stop-color="#C7E1DB"/>
<stop offset="1" stop-color="#9CC7BF"/>
</linearGradient>
</defs>
</svg>
